<svg xmlns="http://www.w3.org/2000/svg" viewBox="0 0 10.847921 16.404169" class="for-home__img-1"><path d="M2.817 15.94c.082-.4.437-.463 2.607-.463 2.17 0 2.525.064 2.606.464.085.415-.185.463-2.606.463s-2.691-.048-2.607-.463zm1.347-1.654c0-.146.567-.265 1.26-.265.693 0 1.26.12 1.26.265 0 .145-.567.265-1.26.265-.693 0-1.26-.12-1.26-.265zm.456-1.258c-.939-3.058-.795-3.773.758-3.773 1.63 0 1.869.591 1.155 2.864-.363 1.158-.536 1.372-1.101 1.372-.398 0-.728-.188-.812-.463zm.384-4.833c0-.294.187-.53.42-.53.233 0 .42.236.42.53 0 .295-.187.53-.42.53-.233 0-.42-.235-.42-.53zm-4.06-.898c-.462-.15-.884-.299-.938-.331-.054-.033.25-1.497.677-3.255L1.458.516h1.577c.871 0 1.73-.145 1.92-.324.27-.256.459-.256.892 0C6.15.37 7.07.516 7.893.516H9.39l.775 3.195c.426 1.758.73 3.22.677 3.25-.754.414-1.896.576-2.442.346-.464-.196-.8-.178-1.212.066-.409.241-.656.255-.873.05-.39-.37-1.392-.37-1.782 0-.217.205-.465.19-.875-.052-.412-.243-.755-.263-1.223-.07-.44.182-.922.18-1.49-.004z"/></svg>