<svg xmlns="http://www.w3.org/2000/svg" viewBox="0 0 14.65108 6.0854199"><path fill="#62d0ba" d="M.76 5.291c.595-.62.995-.796 1.836-.804l1.075-.01-.728-.395c-.903-.49-.967-1.47-.132-2.052.59-.411.586-.415-.347-.43C1.773 1.59 1.318 1.376.76.794L0 0h1.927c1.455 0 2.099.12 2.629.494.537.378 1.34.524 3.418.621 1.494.07 2.779.19 2.855.265.076.076-.008.46-.188.853-.252.553-.255.9-.014 1.538.17.453.255.88.187.948-.068.068-1.346.18-2.84.25-2.077.097-2.88.243-3.418.622-.53.373-1.174.494-2.63.494H0zm10.698-1.62c-.32-.6.028-1.82.52-1.82.383 0 2.673 1.02 2.673 1.191 0 .167-2.286 1.19-2.658 1.19-.129 0-.37-.252-.535-.562z"/></svg>