<svg xmlns="http://www.w3.org/2000/svg" viewBox="0 0 9.260417 8.9958315"><path fill="#64d0bb" d="M3.109 8.849c-.683-.18-.573-.453.493-1.218l.955-.686 1.019.71c.56.391 1.023.787 1.029.88.024.41-2.327.622-3.496.314zm-1.373-.857c-.09-.147 1.299-1.372 3.085-2.724a957.004 957.004 0 0 0 3.556-2.696c.184-.143.372-.132.47.028.09.146-1.299 1.372-3.085 2.724a1182.509 1182.509 0 0 0-3.556 2.695c-.184.144-.372.132-.47-.027zm4.328-.607c-.674-.492-1.017-.895-.82-.96.432-.146 2.468 1.261 2.276 1.573-.196.32-.156.337-1.456-.613zm-5.12-.19C.802 6.96 7.019 1.96 7.86 1.635c1.049-.406-.032.66-2.898 2.86A1627.43 1627.43 0 0 0 1.413 7.22c-.183.141-.373.131-.468-.025zm6.13-.474c-.922-.662-1.259-1.158-.785-1.158.443 0 2.182 1.379 2.037 1.616-.201.327-.114.359-1.252-.458zm-6.81-.6c0-.263 6.064-5.002 6.733-5.26 1.17-.454.056.642-2.99 2.938C.606 6.363.265 6.575.265 6.122zm7.314-.4c-1.004-.83-.444-1.18.618-.387.44.328.8.694.8.813 0 .4-.655.203-1.418-.427zM0 4.494c0-.737.053-.79.53-.534.29.157.528.398.528.534 0 .137-.238.377-.529.534C.053 5.286 0 5.232 0 4.495zm8.369.305c-.354-.394-.376-.55-.107-.759.879-.687.998-.65.998.305 0 1.064-.236 1.185-.891.454zM.989 3.65C.301 3.143.034 2.625.463 2.628c.11 0 .546.282.97.624.956.772.554 1.13-.444.397zm.607-.977c-.493-.416-.78-.828-.638-.917.287-.179 1.952 1.036 1.952 1.425 0 .424-.383.276-1.314-.508zm.849-.737c-.474-.377-.794-.798-.71-.935.157-.256 2.218 1.064 2.228 1.426.011.401-.676.179-1.518-.49zm.873-.774C2.887.806 2.604.444 2.69.358c.298-.3 2.05-.464 3.018-.281l.975.184-.894.772c-1.09.94-1.463.96-2.471.128z"/></svg>