<svg xmlns="http://www.w3.org/2000/svg" viewBox="0 0 8.7312498 8.4773407"><path fill="#62d0ba" d="M.794 6.613V4.748l1.653.079 1.654.078.078 1.786.079 1.786H.794zm3.758.078l.078-1.786 1.654-.078 1.653-.08v3.73H4.474zM0 3.318c0-.878.047-.926.903-.926.888 0 .898-.013.612-.773C.953.132 2.598-.603 3.782.606l.584.595.603-.612c1.1-1.118 3.025-.255 2.239 1.005-.469.75-.433.798.597.798.882 0 .926.044.926.926v.926H4.53l-.104-.992-.104-.992-.044.992-.045.992H0zm3.728-1.675C3.252.753 2.693.436 2.252.802c-.465.385-.3.745.487 1.062.97.392 1.28.322.989-.221zm2.394-.026c.49-.4.556-.58.305-.836-.361-.367-.96-.006-1.424.862-.355.664.293.65 1.12-.026z"/></svg>