<svg xmlns="http://www.w3.org/2000/svg" viewBox="0 0 26.987505 8.9958353"><path fill="#2b2728" d="M3.84 7.067c-.026-1.863-.037-1.893-.304-.865-.251.968-.59 1.448-1.027 1.46-.09.001-.39-.565-.665-1.26l-.501-1.265-.133 1.728C1.11 8.164.972 8.612.654 8.672.29 8.742.205 8.264.058 5.36c-.1-1.971-.069-3.496.074-3.639.47-.471 1.001.055 1.61 1.597.338.855.707 1.66.82 1.79.114.129.403-.47.642-1.331s.482-1.715.54-1.898c.06-.183.343-.333.632-.333.49 0 .53.22.606 3.393.081 3.37-.046 4.058-.748 4.058-.275 0-.373-.481-.394-1.93zm4.442 1.509c-.267-.698.116-1.709.648-1.709.366 0 .474.182.437.732-.043.615.066.745.68.816.719.083.731.059.731-1.365 0-1.672-.248-1.971-1.73-2.092l-1.06-.087-.083-1.455c-.101-1.794.262-2.137 2.26-2.137 1.233 0 1.41.067 1.41.532 0 .355-.177.532-.53.532-.293 0-.533-.106-.533-.237 0-.34-.725-.572-1.209-.386-.307.118-.391.47-.332 1.389.079 1.217.09 1.232 1.143 1.373 1.611.215 1.727.366 1.727 2.242 0 1.654-.016 1.693-.837 1.98-1.232.43-2.531.369-2.722-.128zM6.128 5.822c-.192-2.948-.114-3.479.512-3.479.255 0 .4.783.538 2.918.192 2.973.12 3.469-.506 3.469-.262 0-.403-.76-.544-2.908zm6.48 2.329c-.018-.34-.07-2.026-.117-3.745-.08-2.945-.055-3.127.43-3.127.403 0 .516.188.518.865.002.476.077 1.314.168 1.863.136.825.273.997.794.997.599 0 .63-.086.63-1.749 0-1.522.06-1.737.465-1.66.396.075.499.556.69 3.22.24 3.324.167 3.915-.482 3.915-.32 0-.407-.34-.407-1.597V5.537h-1.89l.08 1.52c.069 1.275.007 1.537-.383 1.617-.33.067-.474-.084-.496-.523zm4.283-1.625c0-1.233-.076-2.978-.17-3.877-.159-1.517-.132-1.636.362-1.636.433 0 .565.232.702 1.235.093.679.175 1.666.183 2.195.013.926.05.887 1.06-1.091.909-1.778 1.911-2.899 2.27-2.539.06.06-.26.79-.71 1.624L19.77 3.95l.937 2.175c.516 1.196.878 2.27.805 2.389-.342.554-.965.101-1.444-1.05-.29-.694-.62-1.489-.734-1.764-.19-.457-.253-.433-.712.266-.277.422-.572 1.185-.656 1.696-.096.59-.32.96-.613 1.017-.408.078-.46-.169-.46-2.154zm5.316 1.18c0-.417-.074-1.645-.165-2.728-.142-1.694-.094-2.056.34-2.591.515-.634 2.648-1.232 3.384-.95.222.086.446.75.56 1.656.103.832.325 1.602.493 1.712.228.149.225.251-.011.405-.174.113-.353.86-.399 1.66-.064 1.135-.185 1.475-.547 1.544-.398.076-.466-.126-.466-1.394 0-1.234-.078-1.484-.465-1.487a5.2 5.2 0 0 1-1.063-.164c-.572-.154-.598-.091-.598 1.467 0 1.45-.058 1.628-.531 1.628-.408 0-.532-.178-.532-.758zm3.037-4.099c-.225-1.613-.308-1.796-.815-1.796-.814 0-1.425.817-1.425 1.904v1.023h2.399zM5.83 1.427c-.235-.613 0-1.332.466-1.422.522-.1.876 1.302.405 1.602-.464.295-.708.245-.87-.18z"/></svg>