<svg xmlns="http://www.w3.org/2000/svg" viewBox="0 0 8.4666728 5.55625"><path fill="#cecece" d="M.32 5.227C-.107 4.802-.107.754.32.33c.441-.44 7.385-.44 7.827 0 .426.424.426 4.472 0 4.897-.442.44-7.386.44-7.827 0zm7.465-.445c.08-.129-.286-.562-.814-.962-.958-.728-.959-.728-1.848-.251-.859.46-.92.46-1.78 0-.889-.477-.89-.477-1.848.25-.527.401-.893.834-.813.963.19.306 6.913.306 7.103 0zm-6.13-1.557c.504-.432.292-.896-.64-1.392-.436-.233-.484-.14-.484.951 0 1.26.113 1.305 1.123.44zm6.232-1.016L7.803 1.5l-.764.657-.764.657.764.6c.762.6.764.6.848.052.046-.302.046-.868 0-1.257zm-1.769.15c1-.739 1.751-1.45 1.67-1.58C7.595.469.872.467.68.778.563.966 3.821 3.663 4.201 3.692c.055.004.918-.596 1.917-1.333z"/></svg>