<svg xmlns="http://www.w3.org/2000/svg" viewBox="0 0 39.337028 19.021434"><path fill="#0b0b0b" d="M30.668 18.515c-.358-.668-.348-1.075.028-1.075.361 0 1 .793 1.013 1.256.013.518-.737.388-1.041-.18zm.873-.96c-.255-.667.341-1.06.671-.443.276.516.164.857-.283.857-.126 0-.3-.187-.388-.415zM7.64 17.18c0-.168.107-.505.238-.75.21-.394.061-.446-1.281-.446-.91 0-1.698.148-1.965.369-.577.478-.882.173-.403-.403.485-.585.52-1.32.207-4.331-.165-1.587-.17-2.985-.014-3.792.326-1.684.174-2.14-.906-2.722-.497-.267-.903-.578-.903-.69 0-.338.772-.231 1.427.198.55.361.65.361.95 0 .259-.313.94-.403 3.05-.403h2.715l-.036-1.389c-.036-1.365-.019-1.397 1-1.895.94-.459 1.135-.471 2.108-.132.686.24 1.295.707 1.692 1.3.537.803 1.475 1.587 1.023.856-.092-.15.015-.342.238-.427a.42.42 0 0 1 .555.237c.083.215.254.392.379.392s.164-.166.086-.37c-.078-.204-.011-.45.148-.55.332-.205 1.587.884 1.594 1.383.003.182.12.33.263.33.16 0 .146-.247-.035-.644-.303-.665-.158-1.472.264-1.472.132 0 .323.387.426.86.18.832.193.84.43.242.328-.832.875-.593 1.037.453.132.849.134.85.603.298.258-.304.594-.476.745-.382.152.093.34-.08.42-.386.08-.306.324-.556.54-.556.29 0 .351.178.23.662-.269 1.07.304.759.854-.463C26.063.9 26.965.188 28.503.04c1.074-.104 1.398-.028 1.86.435.602.601.709 1.457.313 2.498-.24.631-.204.656 1.212.833 1.146.143 1.558.093 1.922-.236.593-.537.919-.536.712.003-.106.278.012.466.35.555.282.074.58.31.663.525.115.3.311.2.835-.423.377-.448.816-.814.976-.814s-.039.344-.442.765c-.462.482-.627.83-.446.941.157.098.286.756.286 1.463 0 1.782.183 2.185.834 1.836.284-.152.719-.234.966-.182.318.066.128.28-.652.737-1.031.601-1.113.737-1.274 2.105a15.093 15.093 0 0 1-.67 2.823c-.274.748-.426 1.43-.34 1.518.088.087-.306.353-.874.591-.958.402-1.396.4-6.06-.016-2.948-.263-6.666-.413-8.992-.363l-3.966.085-.348.728c-.449.937-1.212 1.02-.86.093l.242-.634-2.881-.023c-2.867-.024-2.883-.02-3.224.68-.361.74-1.005 1.135-1.005.616zm3.965-6.818c-.002-1.855-.11-3.54-.238-3.743-.435-.687-.947-.099-1.445 1.66-.273.964-.57 1.75-.661 1.749-.091-.002-.503-.835-.914-1.852-.412-1.017-.829-1.847-.926-1.845-.768.018-.878.533-.793 3.728.08 3.074.119 3.28.615 3.28.482 0 .523-.154.462-1.72-.063-1.605-.04-1.685.347-1.19.228.29.483.862.566 1.27.222 1.085 1.189.887 1.429-.292.304-1.496.503-1.272.503.565 0 1.587.053 1.763.53 1.763.501 0 .528-.175.525-3.373zm6.742 2.821c.268-.277.316-.783.185-1.961-.17-1.526-.207-1.59-.97-1.66-1.92-.176-1.985-.23-1.985-1.652 0-1.278.024-1.318.766-1.318.436 0 .83.17.918.397.174.453.405.49.945.148.315-.2.32-.312.034-.657-.412-.497-2.073-.554-3.059-.105-.634.289-.68.422-.608 1.786l.078 1.473 1.104.08c1.375.1 1.607.378 1.708 2.037.08 1.308.072 1.323-.704 1.323-.692 0-.779-.086-.735-.728.038-.55-.07-.727-.442-.727-.53 0-.991 1.326-.652 1.875.256.414 2.954.168 3.417-.31zm4.615-1.923c-.034-3.177-.294-4.8-.77-4.8-.306 0-.403.364-.423 1.587-.024 1.49-.066 1.592-.692 1.668-.642.077-.673.013-.851-1.802-.155-1.567-.26-1.868-.631-1.797-.326.063-.442.352-.433 1.075.084 6.217.09 6.28.673 6.28.492 0 .547-.14.495-1.257-.086-1.857-.061-1.918.804-1.918.79 0 .793.005.793 1.543 0 1.662.111 1.939.688 1.718.279-.108.365-.677.347-2.297zm-9.068 1.814c.27-.705-.273-5.77-.632-5.888-.557-.184-.665.627-.468 3.514.146 2.143.274 2.77.568 2.77.209 0 .448-.178.532-.396zm10.897-.635c.083-.866.72-2.143 1.07-2.143.094 0 .447.714.786 1.587.455 1.175.747 1.588 1.123 1.588.694 0 .642-.42-.319-2.596-.913-2.068-.895-2.564.15-4.104.593-.874.611-.973.18-.973-.62 0-1.087.57-2.018 2.454-.414.84-.846 1.435-.958 1.323-.112-.113-.24-.98-.284-1.925-.07-1.491-.148-1.72-.588-1.72-.464 0-.498.168-.402 1.985.058 1.091.107 2.792.11 3.78.006 1.643.051 1.789.535 1.72.39-.056.552-.314.615-.976zm5.074-.63c.073-.837.221-1.521.33-1.518.11.003.627.005 1.15.005h.95l-.09 1.465c-.083 1.34-.046 1.459.438 1.39.443-.065.542-.312.611-1.527.045-.797.223-1.536.396-1.643.227-.14.189-.288-.137-.535-.294-.223-.477-.799-.528-1.664l-.077-1.323-1.5.006c-2.39.01-2.601.337-2.601 4.024 0 2.734.044 3.013.463 2.933.357-.068.493-.435.595-1.612zm.86-2.252c-.8-.082-.86-.157-.856-1.064.005-1.272.268-1.645 1.208-1.713.746-.054.775-.011.854 1.238.095 1.494-.034 1.659-1.206 1.539zm-17.218-3.89c-.104-.956-.172-1.037-.696-.836-.247.094-.409.482-.409.977 0 .7.088.808.596.736.49-.07.58-.225.509-.876zm2.335 11.235c0-.14.179-.256.397-.256s.397.047.397.104c0 .057-.179.172-.397.256-.218.084-.397.037-.397-.104zm21.627-4.646c-.352-.352.11-.637 1.032-.637.628 0 .897.108.824.33-.118.362-1.563.6-1.856.307zM.022 11.852c.134-.404 1.74-.805 1.938-.484.17.276-.07.41-1.165.644-.683.147-.863.11-.773-.16zm8.015-8.435c.09-.146.282-.265.428-.265.145 0 .19.12.1.265-.089.145-.282.264-.427.264-.146 0-.191-.119-.101-.264zM5.407 2.7c-.089-.23-.104-.476-.034-.546.192-.191.944.152.944.431 0 .446-.747.54-.91.115zm27.104.215c0-.13.178-.305.397-.389.241-.093.396 0 .396.237 0 .213-.178.388-.396.388s-.397-.106-.397-.236z"/></svg>