<svg xmlns="http://www.w3.org/2000/svg" viewBox="0 0 29.897873 12.170837"><path fill="#0b0b0b" d="M24.116 11.857c-.263-.26-2.835-.318-11.426-.26-9.18.062-11.214.009-11.833-.309l-.746-.383L.02 6.72C-.075 2.35.156.877 1.004.463 1.257.34 6.522.203 12.703.16c6.18-.043 12.36-.104 13.733-.134 3.551-.08 3.408-.325 3.438 5.893l.024 5.038-1.76.611c-1.968.684-3.512.795-4.022.29zM6.896 9.214c.1-.161.095-1.8-.012-3.642-.166-2.842-.26-3.335-.623-3.266-.267.05-.648.788-1.015 1.962l-.587 1.88-.543-1.209c-.298-.664-.629-1.48-.735-1.813-.206-.646-1.098-.83-1.306-.269-.068.185-.066 1.696.006 3.359.118 2.728.18 3.022.637 3.022.44 0 .51-.224.524-1.68.017-1.637.027-1.658.386-.872.203.443.437 1.023.52 1.287.236.75 1.238.094 1.265-.827.027-.922.158-.547.38 1.085.168 1.236.668 1.681 1.103.983zm5.924.03c.629-.236.695-.4.695-1.726 0-1.727-.44-2.31-1.744-2.31-.844 0-.901-.061-1.045-1.13-.084-.62-.093-1.225-.02-1.343.23-.367 1.194-.233 1.357.19.233.602 1.181.508 1.181-.117 0-.643-.833-.93-2.046-.704-1.186.22-1.745.796-1.745 1.798 0 1.28.442 1.843 1.445 1.843 1.203 0 1.534.418 1.534 1.935 0 1.196-.049 1.29-.677 1.29-.529 0-.677-.138-.677-.628 0-.763-.202-.994-.704-.803-.222.085-.38.522-.38 1.056 0 .882.035.912 1.066.912.586 0 1.378-.118 1.76-.262zm4.715.025c.29-.182.325-.887.168-3.488-.174-2.903-.25-3.26-.689-3.26-.41 0-.507.26-.574 1.545-.072 1.369-.151 1.555-.691 1.631-.577.081-.61-.004-.61-1.634 0-1.84-.105-2.125-.703-1.897-.298.113-.38.884-.38 3.608 0 3.285.029 3.464.542 3.464.586 0 .615-.097.546-1.813-.041-1.048.01-1.142.623-1.142.788 0 .998.427.998 2.037 0 1.207.121 1.357.77.95zm5.091-.17c.087-.225-.204-1.291-.647-2.37l-.804-1.96.733-1.527c.5-1.04.623-1.526.387-1.526-.474 0-1.204.972-2.006 2.674-.608 1.29-.689 1.366-.853.786-.099-.352-.193-1.207-.207-1.9-.015-.693-.16-1.341-.322-1.44-.697-.428-.837.42-.644 3.895.17 3.047.257 3.522.636 3.45.28-.052.47-.415.527-1.004.049-.507.31-1.201.58-1.542l.491-.62.464 1.141c.256.628.57 1.414.7 1.746.27.696.735.79.965.196zM8.972 6.408c-.087-3.086-.159-3.399-.727-3.183-.325.124-.417.616-.417 2.246 0 2.772.22 3.816.781 3.703.374-.075.427-.478.363-2.766zm15.321 1.129l.082-1.56.866.184c.476.1.9.213.942.25.042.037.15.683.24 1.436.147 1.234.214 1.343.668 1.102.388-.206.505-.575.505-1.586 0-.725.13-1.397.287-1.494.187-.115.144-.284-.123-.486-.247-.186-.443-.847-.49-1.653-.077-1.291-.113-1.347-.933-1.426-1.163-.112-2.755.594-3.045 1.35-.131.343-.174 1.745-.095 3.116.12 2.1.212 2.479.579 2.41.329-.062.455-.465.517-1.643zm.054-2.98c0-1.39.237-1.768 1.112-1.768.76 0 .783.041.783 1.344v1.343h-.948c-.898 0-.947-.048-.947-.919zm-15.64-2.98c-.154-.795-.95-.828-1.102-.045-.167.863.155 1.312.725 1.01.364-.194.472-.47.376-.965z"/></svg>