<svg xmlns="http://www.w3.org/2000/svg" viewBox="0 0 22.489587 9.2604132"><path fill="#191919" d="M1.1 8.95c.601-.37 17.722-.628 19.304-.29l.919.196-1.313.194c-.723.107-5.39.2-10.374.209C2.4 9.271.68 9.209 1.1 8.951zm2.2-2.91c-.033-1.634-.038-1.644-.31-.664-.173.627-.433.995-.701.995-.25 0-.584-.411-.807-.995l-.38-.995-.132 1.46C.874 6.9.73 7.3.444 7.3c-.611 0-.582-5.79.03-5.912.3-.06.597.348 1.014 1.386.325.808.684 1.41.8 1.338.114-.071.36-.727.545-1.456.242-.956.464-1.327.795-1.327.403 0 .469.347.541 2.853.046 1.569-.02 3.002-.146 3.184-.473.684-.691.283-.724-1.326zm3.72 1.273C6.596 6.796 6.775 6 7.34 5.89c.339-.065.457.089.457.595 0 .499.138.682.51.682.69 0 .764-.202.573-1.592-.159-1.159-.194-1.198-1.214-1.327-1.033-.13-1.052-.152-1.134-1.317-.102-1.44.342-1.867 1.944-1.867 1.175 0 1.823.657.974.987-.243.094-.485.03-.543-.143-.056-.172-.389-.313-.738-.313-.565 0-.634.116-.634 1.061 0 .987.052 1.062.737 1.062 1.096 0 1.586.517 1.635 1.724.064 1.617.05 1.653-.836 1.965-1.113.392-1.673.366-2.051-.094zM5.045 4.89c-.15-2.025-.116-2.614.162-2.788.584-.365.704.039.796 2.668.075 2.153.026 2.526-.34 2.6-.362.075-.457-.309-.618-2.48zm5.33-.366c-.091-3.244-.064-3.461.439-3.461.228 0 .409.548.53 1.606.149 1.291.27 1.59.617 1.524.323-.062.452-.435.512-1.474.057-1 .186-1.39.46-1.39.208 0 .388.089.398.198.482 5.133.458 5.905-.18 5.905-.244 0-.365-.327-.368-.995-.005-1.232-.303-1.74-.946-1.613-.395.078-.494.334-.494 1.28 0 .896-.107 1.203-.443 1.27-.39.08-.453-.259-.525-2.85zm3.643-.17c-.172-3.24-.129-3.556.492-3.556.283 0 .378.363.378 1.443 0 .795.097 1.505.215 1.578.118.074.533-.52.92-1.32.635-1.307 1.304-1.98 1.635-1.645.067.067-.153.645-.487 1.284L16.563 3.3l.75 1.806c.413.993.68 1.923.592 2.066-.358.585-.838.185-1.284-1.067-.644-1.81-1.14-1.724-1.459.253-.09.556-.319.968-.565 1.016-.352.068-.44-.392-.58-3.02zm4.442 2.883c-.314-.317-.162-4.74.178-5.21.452-.624 2.486-1.085 2.977-.674.207.174.364.797.364 1.445 0 .663.138 1.196.329 1.274.252.104.244.194-.038.394-.248.175-.314.524-.205 1.078.195.981-.007 1.622-.508 1.622-.26 0-.366-.36-.366-1.26 0-1.25-.008-1.261-.92-1.327l-.918-.066v1.298c0 .87-.122 1.346-.368 1.441-.203.079-.44.072-.525-.016zm2.469-4.45c0-1.218-.207-1.402-1.16-1.032-.28.108-.416.497-.416 1.194 0 .97.047 1.033.788 1.033.759 0 .788-.044.788-1.194zM4.909.799c0-.937.648-1.099.875-.219.178.688.018 1.016-.497 1.016-.246 0-.379-.28-.379-.796z"/></svg>