<svg xmlns="http://www.w3.org/2000/svg" viewBox="0 0 6.5773434 6.2943442"><path fill="#cecece" d="M2.494 5.78C.12 4.42-.913.888.983.605c.42-.062.604.096.74.636.098.395.051.924-.106 1.175-.215.345-.179.61.148 1.084.672.976 1.17 1.248 2.038 1.112 1.085-.169 1.974.486 1.567 1.155-.425.698-1.67.704-2.876.013zm1.04-2.86c-.285-.46.04-.558.402-.12.21.25.23.402.054.402-.155 0-.36-.127-.456-.282zm.731-.69c-.758-.769-.8-.88-.337-.88.292 0 .723.294.959.653.687 1.05.32 1.184-.622.228zm1.793.423c0-.302-.348-.898-.773-1.323C4.86.905 4.265.557 3.962.557c-.302 0-.55-.12-.55-.265 0-.808 2.073.2 2.743 1.333.486.824.567 1.577.168 1.577-.145 0-.265-.247-.265-.55z"/></svg>