<svg style="display: none"><defs><linearGradient id="vector-linearGradient5370" osb:paint="solid"><stop offset="0" id="vector-stop5368" stop-color="#fff"/></linearGradient><style id="vector-style30">.cls-1{opacity:.3}</style><style id="vector-style45">.cls-1{opacity:.6}</style><style id="vector-style30-8">.cls-1{opacity:.3}</style><style id="vector-style45-4">.cls-1{opacity:.6}</style><style id="vector-style30-0">.cls-1{opacity:.3}</style><style id="vector-style104">.cls-1{opacity:.3}</style><style id="vector-style119">.cls-1{opacity:.6}</style><style id="vector-style134">.cls-1{opacity:.5}</style><style id="vector-style149">.cls-1{opacity:.7}</style><style id="vector-style164">.cls-1{opacity:.3}</style><style id="vector-style30-1">.cls-1{opacity:.3}</style><style id="vector-style45-47">.cls-1{opacity:.6}</style><style id="vector-style30-8-8">.cls-1{opacity:.3}</style><style id="vector-style45-4-2">.cls-1{opacity:.6}</style><style id="vector-style30-0-0">.cls-1{opacity:.3}</style><style id="vector-style104-5">.cls-1{opacity:.3}</style><style id="vector-style119-8">.cls-1{opacity:.6}</style><style id="vector-style134-4">.cls-1{opacity:.5}</style><style id="vector-style30-2">.cls-1{opacity:.3}</style><style id="vector-style45-6">.cls-1{opacity:.6}</style><style id="vector-style30-8-1">.cls-1{opacity:.3}</style><style id="vector-style45-4-3">.cls-1{opacity:.6}</style><style id="vector-style30-0-9">.cls-1{opacity:.3}</style><style id="vector-style104-4">.cls-1{opacity:.3}</style><style id="vector-style119-5">.cls-1{opacity:.6}</style><style id="vector-style134-3">.cls-1{opacity:.5}</style><style id="vector-style149-3">.cls-1{opacity:.7}</style><style id="vector-style30-6">.cls-1{opacity:.3}</style><style id="vector-style45-1">.cls-1{opacity:.6}</style><style id="vector-style30-8-88">.cls-1{opacity:.3}</style><style id="vector-style45-4-6">.cls-1{opacity:.6}</style><style id="vector-style30-0-5">.cls-1{opacity:.3}</style><style id="vector-style104-6">.cls-1{opacity:.3}</style><style id="vector-style119-50">.cls-1{opacity:.6}</style><style id="vector-style134-1">.cls-1{opacity:.5}</style><style id="vector-style149-9">.cls-1{opacity:.7}</style><style id="vector-style164-0">.cls-1{opacity:.3}</style><style id="vector-style30-89">.cls-1{opacity:.3}</style><style id="vector-style45-0">.cls-1{opacity:.6}</style><style id="vector-style30-8-2">.cls-1{opacity:.3}</style><style id="vector-style45-4-9">.cls-1{opacity:.6}</style><style id="vector-style30-0-6">.cls-1{opacity:.3}</style><style id="vector-style104-50">.cls-1{opacity:.3}</style><style id="vector-style119-9">.cls-1{opacity:.6}</style><style id="vector-style134-11">.cls-1{opacity:.5}</style><style id="vector-style149-0">.cls-1{opacity:.7}</style><style id="vector-style164-1">.cls-1{opacity:.3}</style><style id="vector-style30-1-5">.cls-1{opacity:.3}</style><style id="vector-style45-47-7">.cls-1{opacity:.6}</style><style id="vector-style30-8-8-7">.cls-1{opacity:.3}</style><style id="vector-style45-4-2-8">.cls-1{opacity:.6}</style><style id="vector-style30-0-0-7">.cls-1{opacity:.3}</style><style id="vector-style104-5-6">.cls-1{opacity:.3}</style><style id="vector-style119-8-6">.cls-1{opacity:.6}</style><style id="vector-style134-4-3">.cls-1{opacity:.5}</style><style id="vector-style30-01">.cls-1{opacity:.3}</style><style id="vector-style45-8">.cls-1{opacity:.6}</style><style id="vector-style30-8-9">.cls-1{opacity:.3}</style><style id="vector-style45-4-1">.cls-1{opacity:.6}</style><style id="vector-style30-0-2">.cls-1{opacity:.3}</style><style id="vector-style104-9">.cls-1{opacity:.3}</style><style id="vector-style119-1">.cls-1{opacity:.6}</style><style id="vector-style134-10">.cls-1{opacity:.5}</style><style id="vector-style149-4">.cls-1{opacity:.7}</style><style id="vector-style164-8">.cls-1{opacity:.3}</style><style id="vector-style30-1-3">.cls-1{opacity:.3}</style><style id="vector-style45-47-4">.cls-1{opacity:.6}</style><style id="vector-style30-8-8-2">.cls-1{opacity:.3}</style><style id="vector-style45-4-2-4">.cls-1{opacity:.6}</style><style id="vector-style30-0-0-9">.cls-1{opacity:.3}</style><style id="vector-style104-5-1">.cls-1{opacity:.3}</style><style id="vector-style119-8-3">.cls-1{opacity:.6}</style><style id="vector-style134-4-4">.cls-1{opacity:.5}</style><style id="vector-style30-2-5">.cls-1{opacity:.3}</style><style id="vector-style45-6-5">.cls-1{opacity:.6}</style><style id="vector-style30-8-1-3">.cls-1{opacity:.3}</style><style id="vector-style45-4-3-8">.cls-1{opacity:.6}</style><style id="vector-style30-0-9-8">.cls-1{opacity:.3}</style><style id="vector-style104-4-3">.cls-1{opacity:.3}</style><style id="vector-style119-5-8">.cls-1{opacity:.6}</style><style id="vector-style134-3-6">.cls-1{opacity:.5}</style><style id="vector-style149-3-6">.cls-1{opacity:.7}</style><style id="vector-style30-65">.cls-1{opacity:.3}</style><style id="vector-style45-471">.cls-1{opacity:.6}</style><style id="vector-style30-8-5">.cls-1{opacity:.3}</style><style id="vector-style45-4-26">.cls-1{opacity:.6}</style><style id="vector-style30-0-1">.cls-1{opacity:.3}</style><style id="vector-style104-7">.cls-1{opacity:.3}</style><style id="vector-style119-7">.cls-1{opacity:.6}</style><style id="vector-style134-15">.cls-1{opacity:.5}</style><style id="vector-style149-2">.cls-1{opacity:.7}</style><style id="vector-style164-87">.cls-1{opacity:.3}</style><style id="vector-style30-1-1">.cls-1{opacity:.3}</style><style id="vector-style45-47-46">.cls-1{opacity:.6}</style><style id="vector-style30-8-8-3">.cls-1{opacity:.3}</style><style id="vector-style45-4-2-86">.cls-1{opacity:.6}</style><style id="vector-style30-0-0-2">.cls-1{opacity:.3}</style><style id="vector-style104-5-0">.cls-1{opacity:.3}</style><style id="vector-style119-8-0">.cls-1{opacity:.6}</style><style id="vector-style134-4-5">.cls-1{opacity:.5}</style><style id="vector-style30-2-9">.cls-1{opacity:.3}</style><style id="vector-style45-6-3">.cls-1{opacity:.6}</style><style id="vector-style30-8-1-5">.cls-1{opacity:.3}</style><style id="vector-style45-4-3-4">.cls-1{opacity:.6}</style><style id="vector-style30-0-9-3">.cls-1{opacity:.3}</style><style id="vector-style104-4-32">.cls-1{opacity:.3}</style><style id="vector-style119-5-7">.cls-1{opacity:.6}</style><style id="vector-style134-3-3">.cls-1{opacity:.5}</style><style id="vector-style149-3-7">.cls-1{opacity:.7}</style><style id="vector-style30-6-5">.cls-1{opacity:.3}</style><style id="vector-style45-1-0">.cls-1{opacity:.6}</style><style id="vector-style30-8-88-3">.cls-1{opacity:.3}</style><style id="vector-style45-4-6-8">.cls-1{opacity:.6}</style><style id="vector-style30-0-5-2">.cls-1{opacity:.3}</style><style id="vector-style104-6-6">.cls-1{opacity:.3}</style><style id="vector-style119-50-2">.cls-1{opacity:.6}</style><style id="vector-style134-1-3">.cls-1{opacity:.5}</style><style id="vector-style149-9-3">.cls-1{opacity:.7}</style><style id="vector-style164-0-5">.cls-1{opacity:.3}</style><style id="vector-style30-89-3">.cls-1{opacity:.3}</style><style id="vector-style45-0-8">.cls-1{opacity:.6}</style><style id="vector-style30-8-2-1">.cls-1{opacity:.3}</style><style id="vector-style45-4-9-7">.cls-1{opacity:.6}</style><style id="vector-style30-0-6-7">.cls-1{opacity:.3}</style><style id="vector-style104-50-6">.cls-1{opacity:.3}</style><style id="vector-style119-9-7">.cls-1{opacity:.6}</style><style id="vector-style134-11-1">.cls-1{opacity:.5}</style><style id="vector-style149-0-9">.cls-1{opacity:.7}</style><style id="vector-style164-1-1">.cls-1{opacity:.3}</style><style id="vector-style30-1-5-7">.cls-1{opacity:.3}</style><style id="vector-style45-47-7-4">.cls-1{opacity:.6}</style><style id="vector-style30-8-8-7-1">.cls-1{opacity:.3}</style><style id="vector-style45-4-2-8-8">.cls-1{opacity:.6}</style><style id="vector-style30-0-0-7-1">.cls-1{opacity:.3}</style><style id="vector-style104-5-6-9">.cls-1{opacity:.3}</style><style id="vector-style119-8-6-7">.cls-1{opacity:.6}</style><style id="vector-style134-4-3-5">.cls-1{opacity:.5}</style><style id="vector-style30-7">.cls-1{opacity:.3}</style><style id="vector-style45-5">.cls-1{opacity:.6}</style><style id="vector-style30-8-86">.cls-1{opacity:.3}</style><style id="vector-style45-4-29">.cls-1{opacity:.6}</style><style id="vector-style30-0-23">.cls-1{opacity:.3}</style><style id="vector-style104-8">.cls-1{opacity:.3}</style><style id="vector-style119-0">.cls-1{opacity:.6}</style><style id="vector-style134-8">.cls-1{opacity:.5}</style><style id="vector-style149-5">.cls-1{opacity:.7}</style><style id="vector-style164-88">.cls-1{opacity:.3}</style><style id="vector-style30-1-31">.cls-1{opacity:.3}</style><style id="vector-style45-47-9">.cls-1{opacity:.6}</style><style id="vector-style30-8-8-4">.cls-1{opacity:.3}</style><style id="vector-style45-4-2-865">.cls-1{opacity:.6}</style><style id="vector-style30-0-0-8">.cls-1{opacity:.3}</style><style id="vector-style104-5-00">.cls-1{opacity:.3}</style><style id="vector-style119-8-1">.cls-1{opacity:.6}</style><style id="vector-style134-4-30">.cls-1{opacity:.5}</style><style id="vector-style30-2-1">.cls-1{opacity:.3}</style><style id="vector-style45-6-2">.cls-1{opacity:.6}</style><style id="vector-style30-8-1-6">.cls-1{opacity:.3}</style><style id="vector-style45-4-3-5">.cls-1{opacity:.6}</style><style id="vector-style30-0-9-6">.cls-1{opacity:.3}</style><style id="vector-style104-4-2">.cls-1{opacity:.3}</style><style id="vector-style119-5-0">.cls-1{opacity:.6}</style><style id="vector-style134-3-64">.cls-1{opacity:.5}</style><style id="vector-style149-3-3">.cls-1{opacity:.7}</style><style id="vector-style30-6-3">.cls-1{opacity:.3}</style><style id="vector-style45-1-7">.cls-1{opacity:.6}</style><style id="vector-style30-8-88-6">.cls-1{opacity:.3}</style><style id="vector-style45-4-6-84">.cls-1{opacity:.6}</style><style id="vector-style30-0-5-21">.cls-1{opacity:.3}</style><style id="vector-style104-6-2">.cls-1{opacity:.3}</style><style id="vector-style119-50-7">.cls-1{opacity:.6}</style><style id="vector-style134-1-7">.cls-1{opacity:.5}</style><style id="vector-style149-9-1">.cls-1{opacity:.7}</style><style id="vector-style164-0-6">.cls-1{opacity:.3}</style><style id="vector-style30-89-7">.cls-1{opacity:.3}</style><style id="vector-style45-0-6">.cls-1{opacity:.6}</style><style id="vector-style30-8-2-0">.cls-1{opacity:.3}</style><style id="vector-style45-4-9-0">.cls-1{opacity:.6}</style><style id="vector-style30-0-6-2">.cls-1{opacity:.3}</style><style id="vector-style104-50-7">.cls-1{opacity:.3}</style><style id="vector-style119-9-3">.cls-1{opacity:.6}</style><style id="vector-style134-11-2">.cls-1{opacity:.5}</style><style id="vector-style149-0-92">.cls-1{opacity:.7}</style><style id="vector-style164-1-17">.cls-1{opacity:.3}</style><style id="vector-style30-1-5-5">.cls-1{opacity:.3}</style><style id="vector-style45-47-7-40">.cls-1{opacity:.6}</style><style id="vector-style30-8-8-7-0">.cls-1{opacity:.3}</style><style id="vector-style45-4-2-8-4">.cls-1{opacity:.6}</style><style id="vector-style30-0-0-7-6">.cls-1{opacity:.3}</style><style id="vector-style104-5-6-5">.cls-1{opacity:.3}</style><style id="vector-style119-8-6-4">.cls-1{opacity:.6}</style><style id="vector-style134-4-3-0">.cls-1{opacity:.5}</style><style id="vector-style30-01-1">.cls-1{opacity:.3}</style><style id="vector-style45-8-6">.cls-1{opacity:.6}</style><style id="vector-style30-8-9-5">.cls-1{opacity:.3}</style><style id="vector-style45-4-1-7">.cls-1{opacity:.6}</style><style id="vector-style30-0-2-1">.cls-1{opacity:.3}</style><style id="vector-style104-9-4">.cls-1{opacity:.3}</style><style id="vector-style119-1-1">.cls-1{opacity:.6}</style><style id="vector-style134-10-6">.cls-1{opacity:.5}</style><style id="vector-style149-4-7">.cls-1{opacity:.7}</style><style id="vector-style164-8-5">.cls-1{opacity:.3}</style><style id="vector-style30-1-3-8">.cls-1{opacity:.3}</style><style id="vector-style45-47-4-6">.cls-1{opacity:.6}</style><style id="vector-style30-8-8-2-7">.cls-1{opacity:.3}</style><style id="vector-style45-4-2-4-3">.cls-1{opacity:.6}</style><style id="vector-style30-0-0-9-6">.cls-1{opacity:.3}</style><style id="vector-style104-5-1-0">.cls-1{opacity:.3}</style><style id="vector-style119-8-3-1">.cls-1{opacity:.6}</style><style id="vector-style134-4-4-5">.cls-1{opacity:.5}</style><style id="vector-style30-2-5-0">.cls-1{opacity:.3}</style><style id="vector-style45-6-5-5">.cls-1{opacity:.6}</style><style id="vector-style30-8-1-3-7">.cls-1{opacity:.3}</style><style id="vector-style45-4-3-8-6">.cls-1{opacity:.6}</style><style id="vector-style30-0-9-8-7">.cls-1{opacity:.3}</style><style id="vector-style104-4-3-0">.cls-1{opacity:.3}</style><style id="vector-style119-5-8-6">.cls-1{opacity:.6}</style><style id="vector-style134-3-6-0">.cls-1{opacity:.5}</style><style id="vector-style149-3-6-3">.cls-1{opacity:.7}</style><style id="vector-style30-3">.cls-1{opacity:.3}</style><style id="vector-style45-40">.cls-1{opacity:.6}</style><style id="vector-style30-8-84">.cls-1{opacity:.3}</style><style id="vector-style45-4-27">.cls-1{opacity:.6}</style><style id="vector-style30-0-7">.cls-1{opacity:.3}</style><style id="vector-style104-0">.cls-1{opacity:.3}</style><style id="vector-style119-51">.cls-1{opacity:.6}</style><style id="vector-style134-6">.cls-1{opacity:.5}</style><style id="vector-style149-8">.cls-1{opacity:.7}</style><style id="vector-style164-00">.cls-1{opacity:.3}</style><style id="vector-style30-1-2">.cls-1{opacity:.3}</style><style id="vector-style45-47-47">.cls-1{opacity:.6}</style><style id="vector-style30-8-8-31">.cls-1{opacity:.3}</style><style id="vector-style45-4-2-3">.cls-1{opacity:.6}</style><style id="vector-style30-0-0-3">.cls-1{opacity:.3}</style><style id="vector-style104-5-09">.cls-1{opacity:.3}</style><style id="vector-style119-8-5">.cls-1{opacity:.6}</style><style id="vector-style134-4-7">.cls-1{opacity:.5}</style><style id="vector-style30-2-7">.cls-1{opacity:.3}</style><style id="vector-style45-6-1">.cls-1{opacity:.6}</style><style id="vector-style30-8-1-4">.cls-1{opacity:.3}</style><style id="vector-style45-4-3-0">.cls-1{opacity:.6}</style><style id="vector-style30-0-9-7">.cls-1{opacity:.3}</style><style id="vector-style104-4-6">.cls-1{opacity:.3}</style><style id="vector-style119-5-73">.cls-1{opacity:.6}</style><style id="vector-style134-3-8">.cls-1{opacity:.5}</style><style id="vector-style149-3-71">.cls-1{opacity:.7}</style><style id="vector-style30-6-59">.cls-1{opacity:.3}</style><style id="vector-style45-1-01">.cls-1{opacity:.6}</style><style id="vector-style30-8-88-2">.cls-1{opacity:.3}</style><style id="vector-style45-4-6-7">.cls-1{opacity:.6}</style><style id="vector-style30-0-5-8">.cls-1{opacity:.3}</style><style id="vector-style104-6-1">.cls-1{opacity:.3}</style><style id="vector-style119-50-3">.cls-1{opacity:.6}</style><style id="vector-style134-1-72">.cls-1{opacity:.5}</style><style id="vector-style149-9-8">.cls-1{opacity:.7}</style><style id="vector-style164-0-59">.cls-1{opacity:.3}</style><style id="vector-style42">.cls-1{opacity:.3}</style><style id="vector-style4607">.cls-1{opacity:.3}</style><style id="vector-style42-8">.cls-1{opacity:.3}</style><style id="vector-style42-7">.cls-1{opacity:.3}</style><linearGradient xlink:href="#vector-linearGradient5370" id="vector-linearGradient5372" x1="166.954" y1="33.888" x2="271.855" y2="33.888" gradientUnits="userSpaceOnUse"/></defs><symbol viewBox="-11.34 -28.346 46.68 81.691" id="flag"><title>flag</title><path fill="#63D1BB" d="M-3.561-24.455v38.9l38.9-19.451-38.9-19.449zm-7.779 77.801v-81.691h3.805v81.691h-3.805z"/><path fill="#231F20" d="M-11.34-28.346h3.805v81.691h-3.805z"/></symbol><symbol viewBox="8.014 4.35 31.972 37.301" id="icon-1"><title>icon-1</title><path fill="#63d1bb" d="M24 41.65c8.827 0 15.986-7.159 15.986-15.986C31.158 25.664 24 32.822 24 41.65zM12.641 20.78a4.442 4.442 0 0 0 4.44 4.441c.932 0 1.803-.294 2.513-.782l-.036.337c0 2.451 1.99 4.441 4.441 4.441s4.44-1.99 4.44-4.441l-.036-.337a4.396 4.396 0 0 0 2.514.782c2.451 0 4.44-1.99 4.44-4.441a4.418 4.418 0 0 0-2.54-3.997 4.434 4.434 0 0 0 2.54-3.997 4.441 4.441 0 0 0-6.954-3.659l.037-.337a4.441 4.441 0 0 0-8.881 0l.036.337a4.392 4.392 0 0 0-2.513-.781 4.442 4.442 0 0 0-4.44 4.44 4.42 4.42 0 0 0 2.54 3.997 4.42 4.42 0 0 0-2.541 3.997zM24 12.343a4.441 4.441 0 0 1 4.44 4.44 4.441 4.441 0 0 1-8.881 0c0-2.451 1.99-4.44 4.441-4.44zM8.014 25.664c0 8.827 7.158 15.986 15.986 15.986 0-8.828-7.158-15.986-15.986-15.986z"/></symbol><symbol viewBox="0 0 9.260417 8.9958315" id="icon-2"><title>icon-2</title><path fill="#64d0bb" d="M3.109 8.849c-.683-.18-.573-.453.493-1.218l.955-.686 1.019.71c.56.391 1.023.787 1.029.88.024.41-2.327.622-3.496.314zm-1.373-.857c-.09-.147 1.299-1.372 3.085-2.724a957.004 957.004 0 0 0 3.556-2.696c.184-.143.372-.132.47.028.09.146-1.299 1.372-3.085 2.724a1182.509 1182.509 0 0 0-3.556 2.695c-.184.144-.372.132-.47-.027zm4.328-.607c-.674-.492-1.017-.895-.82-.96.432-.146 2.468 1.261 2.276 1.573-.196.32-.156.337-1.456-.613zm-5.12-.19C.802 6.96 7.019 1.96 7.86 1.635c1.049-.406-.032.66-2.898 2.86A1627.43 1627.43 0 0 0 1.413 7.22c-.183.141-.373.131-.468-.025zm6.13-.474c-.922-.662-1.259-1.158-.785-1.158.443 0 2.182 1.379 2.037 1.616-.201.327-.114.359-1.252-.458zm-6.81-.6c0-.263 6.064-5.002 6.733-5.26 1.17-.454.056.642-2.99 2.938C.606 6.363.265 6.575.265 6.122zm7.314-.4c-1.004-.83-.444-1.18.618-.387.44.328.8.694.8.813 0 .4-.655.203-1.418-.427zM0 4.494c0-.737.053-.79.53-.534.29.157.528.398.528.534 0 .137-.238.377-.529.534C.053 5.286 0 5.232 0 4.495zm8.369.305c-.354-.394-.376-.55-.107-.759.879-.687.998-.65.998.305 0 1.064-.236 1.185-.891.454zM.989 3.65C.301 3.143.034 2.625.463 2.628c.11 0 .546.282.97.624.956.772.554 1.13-.444.397zm.607-.977c-.493-.416-.78-.828-.638-.917.287-.179 1.952 1.036 1.952 1.425 0 .424-.383.276-1.314-.508zm.849-.737c-.474-.377-.794-.798-.71-.935.157-.256 2.218 1.064 2.228 1.426.011.401-.676.179-1.518-.49zm.873-.774C2.887.806 2.604.444 2.69.358c.298-.3 2.05-.464 3.018-.281l.975.184-.894.772c-1.09.94-1.463.96-2.471.128z"/></symbol><symbol viewBox="46.212 56.834 46.575 27.332" id="icon-3"><title>icon-3</title><path fill="#63d1bb" d="M88.882 56.834H50.116a3.905 3.905 0 0 0-3.904 3.905V80.26a3.905 3.905 0 0 0 3.904 3.905h38.766a3.906 3.906 0 0 0 3.905-3.905V60.739a3.906 3.906 0 0 0-3.905-3.905zm-39.647 24.95V59.551h40.202v22.233H49.235z"/><path fill="#63d1bb" d="M53.14 77.88h32.395V63.456H53.14V77.88zM69.5 65.354a5.315 5.315 0 1 1 0 10.63 5.315 5.315 0 0 1 0-10.63z"/></symbol><symbol viewBox="0 0 14.65108 6.0854199" id="icon-4"><title>icon-4</title><path fill="#62d0ba" d="M.76 5.291c.595-.62.995-.796 1.836-.804l1.075-.01-.728-.395c-.903-.49-.967-1.47-.132-2.052.59-.411.586-.415-.347-.43C1.773 1.59 1.318 1.376.76.794L0 0h1.927c1.455 0 2.099.12 2.629.494.537.378 1.34.524 3.418.621 1.494.07 2.779.19 2.855.265.076.076-.008.46-.188.853-.252.553-.255.9-.014 1.538.17.453.255.88.187.948-.068.068-1.346.18-2.84.25-2.077.097-2.88.243-3.418.622-.53.373-1.174.494-2.63.494H0zm10.698-1.62c-.32-.6.028-1.82.52-1.82.383 0 2.673 1.02 2.673 1.191 0 .167-2.286 1.19-2.658 1.19-.129 0-.37-.252-.535-.562z"/></symbol><symbol viewBox="0 0 9.0024137 7.0647359" id="icon-5"><title>icon-5</title><path fill="#62d0ba" d="M3.307 6.527C1.09 4.947 0 3.503 0 2.145 0 .263 2.706-.731 4.083.646c.377.377.453.377.83 0C5.838-.278 7.517-.2 8.46.812c1.31 1.406.202 3.663-2.811 5.726-1.03.705-1.337.703-2.34-.011z"/></symbol><symbol viewBox="0 0 8.7312498 8.4773407" id="icon-6"><title>icon-6</title><path fill="#62d0ba" d="M.794 6.613V4.748l1.653.079 1.654.078.078 1.786.079 1.786H.794zm3.758.078l.078-1.786 1.654-.078 1.653-.08v3.73H4.474zM0 3.318c0-.878.047-.926.903-.926.888 0 .898-.013.612-.773C.953.132 2.598-.603 3.782.606l.584.595.603-.612c1.1-1.118 3.025-.255 2.239 1.005-.469.75-.433.798.597.798.882 0 .926.044.926.926v.926H4.53l-.104-.992-.104-.992-.044.992-.045.992H0zm3.728-1.675C3.252.753 2.693.436 2.252.802c-.465.385-.3.745.487 1.062.97.392 1.28.322.989-.221zm2.394-.026c.49-.4.556-.58.305-.836-.361-.367-.96-.006-1.424.862-.355.664.293.65 1.12-.026z"/></symbol><symbol viewBox="264.205 370.961 20.294 18.849" id="cart"><title>cart</title><path d="M283.75,378.19h-3.151l-3.407-6.814c-0.185-0.37-0.634-0.52-1.006-0.335 c-0.371,0.186-0.521,0.636-0.335,1.006l3.071,6.143h-9.138l3.072-6.143c0.185-0.371,0.035-0.821-0.335-1.006 c-0.37-0.185-0.821-0.035-1.006,0.335l-3.407,6.814h-3.151c-0.414,0-0.75,0.336-0.75,0.75s0.336,0.75,0.75,0.75h0.157l0.855,2.991 c-0.187,0.137-0.316,0.347-0.316,0.595c0,0.396,0.309,0.71,0.697,0.739l1.656,5.795h12.697l1.656-5.795 c0.388-0.028,0.698-0.344,0.698-0.739c0-0.249-0.129-0.459-0.316-0.596l0.854-2.991h0.157c0.414,0,0.75-0.336,0.75-0.75 S284.164,378.19,283.75,378.19z M279.569,388.311h-10.433l-1.224-4.284h12.881L279.569,388.311z M281.222,382.526h-13.739 l-0.81-2.836h15.359L281.222,382.526z"/> </symbol><symbol viewBox="56.519 49.996 14.962 27.718" id="fb"><title>fb</title> <path d="M68.181,55.188c1.026,0.029,1.993,0,2.681-0.3c0.391-0.818,0.556-1.854,0.619-2.989 c-0.19-0.015-0.062-0.337-0.207-0.399c-0.029-0.202-0.278-0.195-0.309-0.398c-0.277-0.165-0.457-0.422-0.723-0.598 c-0.727-0.162-1.44-0.335-2.164-0.499c-0.849,0.044-1.895-0.103-2.58,0.1c-2.619-0.04-3.997,1.12-5.259,2.392 c-0.023,0.078-0.003,0.197-0.105,0.199c-0.574,1.587-0.125,3.621-0.204,5.581c0.099,0.436,0.107,0.958,0.204,1.395 c-0.998,0.296-2.212,0.387-3.402,0.499c-0.317,0.324-0.178,1.089-0.206,1.693c0.085,0.583,0.278,1.06,0.413,1.595 c0.211,0.193,0.596,0.396,0.825,0.498c0.065,0.029,0.071,0.082,0.103,0.1c0.506,0.268,1.451,0.008,2.268,0.1 c-0.136,1.978,0.256,3.915,0,5.68c0.007,0.327,0.295,0.382,0.208,0.798c-0.001,0.963-0.067,1.99,0.208,2.69 c-0.287,0.455-0.497,0.982-0.415,1.794c0.122,0.016,0.114,0.157,0.105,0.299c-0.075,0.47,0.643,0.175,0.515,0.698 c0.162,0.456-0.428,0.184-0.413,0.498v0.896c0.53,0.285,1.462,0.182,2.268,0.199c0.908-0.419,2.188-0.479,2.785-1.196 c0.459,0.235,0.916-0.014,1.238-0.199c-0.018-0.315,0.273-0.333,0.205-0.698c-0.004-0.328-0.173-0.496-0.103-0.896V71.83 c-0.206-2.293-0.048-4.938-0.309-7.176c0.888-0.105,1.917-0.075,2.578-0.398c0.357-0.451,0.377-1.23,0.516-1.895 c0.177-0.226,0.221-0.583,0.206-0.996c0.19-0.213,0.068-0.729,0.104-1.096c-0.141-0.595-0.168-1.3-0.825-1.39 c-0.884-0.235-2.043,0.595-2.991,0.299c0.049-1.134-0.293-2.342,0-3.388C66.761,55.609,67.461,55.39,68.181,55.188z M64.363,59.971c0.117,0.254,0.254,0.486,0.414,0.698c0.079,0.022,0.203,0.003,0.205,0.101c1.192,0.056,2.199-0.069,3.096-0.299 c0,0.998-0.271,1.733-0.518,2.492c-0.662,0.045-1.467,0.3-1.958,0.198c-0.276,0.165-0.372,0.506-0.62,0.698 c-0.049,0.441,0.142,0.495,0,0.797c-0.201,0.137-0.055,0.611-0.205,0.796v1.496c0.085,0.281-0.146,0.258-0.104,0.497v3.488 c-0.085,0.281,0.146,0.258,0.104,0.498v2.989c0.063,0.271-0.132,0.791,0.103,0.896c-0.07,0.364-0.412-0.021-0.824,0.1 c-0.528,0.122-0.926,0.369-1.548,0.4c0.117-0.353,0.32-0.622,0.311-1.097c0.049-0.381-0.365-0.312-0.516-0.49 c0.193-0.644,0.562-1.117,0.722-1.793c0.197-0.515,0.714-1.298,0.31-1.794c-0.522-0.105-0.521,0.293-0.826,0.398 c-0.022,0.077-0.002,0.196-0.103,0.199c-0.023,0.077-0.003,0.196-0.103,0.199c0.01,0.12-0.151,0.062,0,0 c0.022-0.078,0.002-0.197,0.103-0.199c0.023-0.077,0.002-0.197,0.103-0.199v-0.299c0.368-0.575,0.67-1.214,0.826-1.993 c0.191-0.28,0.283-0.656,0.412-0.997c0.156-0.262,0.34-0.869,0.104-1.195c-0.517,0.033-0.796,0.295-0.93,0.697 c-0.32-0.189,0.161-0.434,0.104-0.697c0.138-0.231,0.169-0.566,0.309-0.797c0.202-0.413,0.564-1.304,0-1.596 c-0.438-0.023-0.612,0.207-0.723,0.498c-0.214,0.191-0.43,0.383-0.516,0.698c-0.373-0.07-0.143-0.727-0.206-1.097 c-0.067-0.52,0.122-0.899,0-1.195c-0.56-0.799-2.026-0.105-3.197-0.299c-0.108-0.307-0.222-0.984-0.104-1.195 c1.045-0.088,2.479,0.201,3.197-0.199c0.024-0.078,0.003-0.197,0.104-0.199c0.094-0.723-0.271-1-0.515-1.396 c0.232-0.806,0.04-2.02,0.104-2.989c0.233-0.141,0.328-0.414,0.515-0.598c0.112-0.955,0.673-1.476,0.722-2.49 c-0.273,0.001-0.607-0.055-0.619,0.199c-0.302-0.114-0.382,0.479-0.515,0.199c-0.112-0.541,0.246-0.626,0.309-0.997 c0.599-0.418,1.212-0.82,1.856-1.195c1.741-0.244,4.648-0.449,6.086,0.198c0.051,0.616-0.287,0.854-0.207,1.496h-1.546 c-1.092,0.24-1.987,0.672-2.991,0.997c-0.24,0.066-0.276,0.331-0.516,0.398c-0.036,0.396-0.225,0.646-0.311,0.996 C64.182,57.424,64.394,58.582,64.363,59.971z"/> </symbol><symbol viewBox="0 0 60 60" id="htmlacademy"><title>htmlacademy</title><path fill="#56c3b2" d="M30.2 5h-.2l-19.7 2.1v36.2l19.7 11.7 19.7-11.7v-36.2l-19.5-2.1zm17 36.8l-17.2 10.2-17.2-10.2v-14.8l17.1 10.2v1.8l-11.7-7v1.8l11.8 7.1v1.9l-11.8-7v1.8l11.8 7 11.9-7.1v-7.6l5.3-3.2v15.1zm-.1-17l-4.7 2.8-2.2 1.3-10.3-6.1v1.8l8.8 5.3h-.1l-.2.1-1.3.7-7.3-4.3v1.8l5.8 3.4-1.4.9-4.3-2.6v1.8l2.9 1.7-2.9 1.7-17-10.1 17-10.2 17.2 10zm.1-1.8l-17.3-10.2-17.1 10.2v-13.6l17.2-1.8 17.2 1.8v13.6z"/></symbol><symbol viewBox="0 0 50 26.003" id="huge-arrow-left"><title>huge-arrow-left</title><polygon points="50,11.002 7.659,11.002 15.833,2.828 13.005,0 0,12.998 0.003,13.001 0,13.005 13.005,26.003 15.833,23.175 7.661,15.002 50,15.002 "/> </symbol><symbol viewBox="0 0 50 26.003" id="huge-arrow-right"><title>huge-arrow-right</title><polygon points="0,11.002 42.341,11.002 34.166,2.828 36.995,0 50,12.998 49.996,13.001 50,13.005 36.995,26.003 34.166,23.175 42.339,15.002 0,15.002 "/> </symbol><symbol viewBox="53.115 53.19 21.769 21.334" id="insta"><title>insta</title> <path d="M74.881,65.336c-0.013-2.395-0.344-4.788-0.303-7.135c-0.023-0.788-0.086-1.535-0.152-2.278 c-0.105-0.3-0.111-0.699-0.152-1.062c-0.26-0.17-0.222-0.64-0.456-0.835c-0.423-0.233-1.201-0.114-1.744-0.22 c-0.657-0.026-1.254-0.115-1.899-0.153c-1.936-0.101-3.973-0.076-5.996-0.076c-2.001,0-3.954-0.145-5.695-0.379h-2.202 c-0.097,0.004-0.105,0.098-0.227,0.076c-0.599,0.034-1.077,0.188-1.595,0.303c-0.21,0.119-0.421,0.235-0.683,0.304 c-0.136,0.192-0.513,0.145-0.607,0.379c-0.186,0.212,0.185,0.451,0,0.607v0.911c0.173,0.13,0.027,0.58,0.075,0.835v0.987 c-0.017,1.281,0.134,2.397,0.076,3.72c0.467,2.762,0.374,6.537,0.076,9.413c0.155,0.579,0.363,1.105,0.455,1.746 c0.256,0.479,0.335,1.133,0.683,1.52c0.502,0.206,1.233,0.186,1.898,0.229c0.383,0.098,0.667,0.293,1.14,0.30 c2.843-0.21,5.496-0.154,8.427-0.229c2.704,0.24,5.802,0.188,8.275-0.228c0.195-0.134,0.128-0.529,0.228-0.76 c-0.056-0.385,0.207-0.449,0.228-0.759C74.862,70.157,74.895,67.763,74.881,65.336z M61.899,59.111 c0.757-0.153,1.48-0.341,2.429-0.304c0.71,0.076,1.287,0.283,1.897,0.456c0.116,0.184-0.243,0.547,0.153,0.684v0.076 c0.059,0.017,0.149,0.002,0.151,0.076c0.445,0.035,0.794,0.167,1.063,0.379c0.45,0.055,0.536,0.476,1.138,0.3 c-0.091,0.213-0.084,0.524-0.075,0.835c0.324,1.183,0.475,2.81,0.303,4.252c-0.164,0.163-0.215,0.442-0.303,0.683 c-0.311,0.322-0.481,0.785-0.836,1.062c-0.095,0.236-0.25,0.408-0.454,0.533c-0.116,0.213-0.206,0.452-0.457,0.53 c-0.298,0.163-0.577,0.011-0.834-0.076c-0.446,0.162-0.904,0.312-1.215,0.607c-0.816-0.096-1.648-0.175-2.43-0.304 c-0.242-0.139-0.487-0.273-0.835-0.305c-0.227-0.204-0.496-0.364-0.836-0.455c-0.101-0.127-0.337-0.118-0.455-0.229 c-0.198-0.029-0.229-0.227-0.456-0.229c-0.118-0.412-0.443-0.618-0.532-1.062c-0.226-0.331-0.308-0.805-0.455-1.215 c-0.043-1.434,0.091-2.692,0.379-3.796c0.346-0.591,0.779-1.094,1.138-1.67c0.249,0.021,0.365-0.09,0.38-0.304 c0.306,0.053,0.434-0.072,0.684-0.075C61.698,59.568,61.71,59.251,61.899,59.111z M60.229,56.378 c-0.117-0.263-0.066-0.691-0.075-1.062c-0.007-0.285,0.278-0.279,0.304-0.532c-0.003-0.074-0.093-0.059-0.152-0.076 c0.126-0.146,0.701-0.097,0.834,0c0.132,0.537-0.354,0.455-0.531,0.684c0.011,0.167,0.322,0.032,0.456,0.076 c0.029,0.854-0.059,1.496,0,2.202h-0.456c-0.007,0.234,0.229,0.226,0.456,0.228c-0.059,0.286,0.092,0.363,0.075,0.607 c-0.226,0.153-0.716,0.042-1.062,0.075C59.975,57.986,60.313,57.205,60.229,56.378z M59.546,54.784 c0.088-0.013,0.134,0.016,0.151,0.076c0.179,0.253,0.01,0.683-0.076,0.911C59.448,55.592,59.595,55.089,59.546,54.784z M59.698,56.606c-0.132-0.069-0.168-0.237-0.152-0.456C59.678,56.221,59.713,56.388,59.698,56.606z M59.698,57.973 c-0.058,0.139-0.082-0.045-0.076-0.152C59.68,57.682,59.703,57.866,59.698,57.973z M59.546,58.201 c0.175-0.024,0.084,0.219,0.228,0.227c-0.009,0.193-0.283,0.179-0.38,0.077C59.433,58.393,59.507,58.312,59.546,58.201z M57.192,56.985c0.006-0.108,0.013-0.214-0.076-0.228c-0.073-0.733,0.13-1.415,0-1.973c0.25-0.155,0.769-0.042,1.139-0.077v1.139 c-0.088,0.064-0.203,0.101-0.379,0.077c-0.054,0.28,0.324,0.131,0.379,0.304c0.008,0.853-0.056,1.777,0.152,2.429 c-0.565-0.059-0.906,0.107-1.442,0.076c0.097-0.612-0.019-1.435,0.531-1.594C57.484,56.997,57.239,57.091,57.192,56.985z M56.661,56.985c-0.204,0.021-0.217-0.534-0.077-0.607C56.912,56.384,56.833,56.879,56.661,56.985z M56.509,57.973 c0.077-0.312,0.034-0.304,0.075-0.683C56.812,57.303,56.844,58.06,56.509,57.973z M56.737,55.923 c-0.263,0.054-0.273-0.266-0.153-0.38C56.847,55.49,56.856,55.81,56.737,55.923z M56.737,54.784 c0.033,0.159-0.052,0.201-0.076,0.304c-0.176,0.023-0.084-0.219-0.229-0.229C56.457,54.757,56.623,54.797,56.737,54.784z M56.509,58.505c0.148-0.031,0.11,0.345-0.076,0.227C56.473,58.67,56.512,58.608,56.509,58.505z M55.825,54.784 c0.029,0.259-0.438,0.32-0.379,0H55.825z M54.838,54.86c-0.034,0.219-0.326,0.179-0.379,0.379 C54.245,55.069,54.543,54.771,54.838,54.86z M54.383,55.619c0.226-0.205,0.451-0.41,0.684-0.607 c-0.021-0.123,0.071-0.131,0.076-0.228h0.229c0.102,0.381-0.261,0.296-0.305,0.531c0.021,0.122-0.072,0.131-0.075,0.227 c0.02,0.335,0.121,0.588,0.075,0.988c-0.27,0.008-0.276,0.28-0.607,0.227C54.482,56.329,54.325,56.083,54.383,55.619z M54.459,58.884V57.29c0.195-0.185,0.396-0.364,0.607-0.532c0.295,0.489,0.179,1.392,0.455,1.897 C55.246,58.812,54.771,58.766,54.459,58.884z M72.68,69.968c-0.109,0.954-0.158,1.968-0.379,2.809 c-2.89,0.123-6.02,0.005-8.883,0.153c-0.199,0.045-0.273-0.031-0.229-0.229c-0.253,0-0.258,0.247-0.531,0.229 c0.201-0.336,0.438-0.898,0.151-1.291c-0.797,0.013-0.797,0.821-1.138,1.291c-0.686-0.053-1.137,0.127-1.823,0.075 c0.18-0.705,0.75-1.021,0.911-1.745c-0.395-0.55-0.989,0.138-1.214,0.455c-0.204,0.48-0.557,0.81-0.76,1.29H57.8 c0.238-0.469,0.489-0.926,0.759-1.366c0.171-0.512,0.625-0.741,0.683-1.367c-0.157-0.28-0.42-0.029-0.683,0 c-0.123,0.182-0.272,0.335-0.38,0.531c-0.232,0.376-0.501,0.714-0.684,1.14c-0.181,0.208-0.335,0.003-0.53,0.227 c-0.389,0.271-0.581,0.736-0.988,0.987c-0.174-0.06,0.039-0.356,0.153-0.38c0.045-0.181-0.096-0.55,0.075-0.607 c0.063-0.366,0.212-0.647,0.379-0.91c0.119-0.742,0.521-1.199,0.684-1.898c-0.559,0.099-0.674,0.643-0.988,0.987 c-0.212,0.445-0.542,0.772-0.683,1.291c-0.174-0.131-0.028-0.58-0.076-0.836c0.122-0.586,0.298-1.119,0.38-1.746 c0.133-0.22,0.173-0.535,0.228-0.834c0.168-0.209,0.046-0.61-0.077-0.761c-0.226,0.027-0.374,0.133-0.455,0.304 c-0.192-0.032-0.193,0.506-0.304,0.304c-0.045-2.587-0.451-4.812-0.456-7.438c0.026-0.331-0.183-0.424-0.228-0.685 c1.629,0.028,3.121,0.091,4.783,0.229c-0.089,0.139-0.199,0.257-0.304,0.379c-0.144,0.07-0.226,0.173-0.378,0.304 c-0.604,1.653-0.975,3.984-0.607,6.15c0.229,0.58,0.589,1.029,0.986,1.441c0.907,0.485,1.635,1.149,2.506,1.671 c1.701,0.361,3.84,0.369,5.541,0c0.236-0.12,0.484-0.226,0.685-0.38c1.364-1.242,2.753-2.459,2.961-4.859v-1.367 c-0.197-1.598-0.688-2.905-1.747-3.644c0.331-0.22,1.099,0.043,1.67,0.076c0.223,0.013,0.447,0.014,0.684,0 c0.408-0.024,0.928-0.055,1.443,0c0.144,0.187,0.113,0.544,0.228,0.76c-0.062,1.684-0.192,3.3-0.152,5.087 c0.103,0.454,0.127,0.986,0.229,1.441C73.046,68.209,72.9,69.126,72.68,69.968z M73.059,58.808 c-0.639-0.12-1.232-0.284-1.897-0.379c0.072-0.333,0.799-0.01,0.987-0.228c0.385-0.223,0.295-0.92,0.304-1.51 c0.032-0.348,0.114-0.644,0.076-1.063c-0.401-0.951-1.783-0.421-2.886-0.455c-0.225,0.718-0.47,1.8-0.304,2.657 c0.169,0.49,1.024,0.292,1.519,0.456c-0.14,0.332-0.688,0.057-0.987,0.076c-0.296-0.083-0.707-0.052-0.986-0.151 c-2.285,0.078-4.284,0.004-6.529,0.151c0.117-1.248,0.063-2.465-0.076-3.645h3.112c-0.344,0.364-0.912,0.507-1.29,0.835 c-0.44,0.244-0.861,0.505-1.139,0.911c0.249,0.134,0.535-0.245,0.759-0.379c0.355-0.074,0.479-0.381,0.835-0.455 c0.423-0.438,1.096-0.625,1.67-0.912c0.378-0.022,0.697,0.013,0.987,0.077c1.283,0.007,2.456,0.126,3.796,0.076 c0.614,0.145,1.45,0.069,1.974,0.304c0.107,0.298,0.231,0.579,0.305,0.911C73.297,57.071,73.14,57.901,73.059,58.808z M67.214,55.088C67.324,55.041,67.205,54.996,67.214,55.088L67.214,55.088z M67.214,55.088c-0.529,0.154-1.019,0.348-1.367,0.682 C66.331,55.572,66.906,55.464,67.214,55.088z M68.276,55.695C68.387,55.648,68.269,55.604,68.276,55.695L68.276,55.695z M66.53,56.606c0.727-0.158,1.181-0.591,1.746-0.911c-0.437,0.019-0.592,0.32-0.987,0.379 C67.074,56.291,66.689,56.334,66.53,56.606z M65.847,55.771C65.736,55.818,65.854,55.863,65.847,55.771L65.847,55.771z M65.164,56.378C65.274,56.332,65.156,56.286,65.164,56.378L65.164,56.378z M65.089,56.454c0.063,0.014,0.07-0.03,0.075-0.076 C65.1,56.364,65.092,56.408,65.089,56.454z M65.012,56.53c0.064,0.014,0.072-0.03,0.077-0.076 C65.022,56.441,65.017,56.483,65.012,56.53z M64.178,57.138c0.346-0.134,0.613-0.348,0.834-0.607 C64.664,56.664,64.397,56.878,64.178,57.138z M66.454,58.125c0.533-0.049,0.749-0.416,1.215-0.531 c0.284-0.298,0.784-0.381,0.987-0.76c-0.56,0.023-0.766,0.399-1.216,0.531C67.156,57.662,66.689,57.778,66.454,58.125z M64.178,57.138C63.861,57.064,64.162,57.365,64.178,57.138L64.178,57.138z M63.645,57.517c0.021,0.021,0.115-0.037,0.076-0.077 C63.7,57.42,63.605,57.478,63.645,57.517z M66.454,58.125C66.344,58.172,66.461,58.216,66.454,58.125L66.454,58.125z M65.314,59.946c-0.223-0.231-0.676-0.233-0.986-0.379c-0.697-0.038-1.223,0.093-1.746,0.229c-0.304,0.151-0.607,0.304-0.91,0.454 c-0.266,0.166-0.444,0.417-0.76,0.532c-0.205,0.225-0.352,0.51-0.684,0.607c-0.004,0.223-0.173,0.281-0.304,0.379 c-0.089,0.115-0.094,0.312-0.227,0.381c-0.007,0.12,0.036,0.29-0.076,0.303c0.108,1.512,0.291,2.948,0.683,4.177 c0.287,0.623,0.975,0.846,1.442,1.29c0.589,0.297,1.328,0.444,2.126,0.531c0.277-0.052,0.553-0.105,0.911-0.076 c1.209-0.209,2.098-0.736,2.81-1.441c0.1-0.281,0.252-0.508,0.455-0.684c-0.254-0.671,0.293-1.098,0.455-1.59 c0.002-1.344-0.201-2.48-0.607-3.415c-0.256-0.579-0.92-0.751-1.366-1.139c-0.059-0.018-0.15-0.003-0.151-0.077 C66.11,59.892,65.646,59.789,65.314,59.946z M61.899,64.273c-0.113-0.063-0.109-0.244-0.152-0.379 C62.003,63.816,61.865,64.131,61.899,64.273z M61.975,64.578c0.041-0.117,0.079-0.006,0.076,0.075 C62.011,64.771,61.972,64.658,61.975,64.578z M62.431,62.527c0.015-0.086,0.075-0.042,0.075,0 C62.492,62.614,62.431,62.57,62.431,62.527z M64.101,60.402c-0.203,0.258,0.041,0.576,0.077,0.836 C63.873,61.199,63.604,60.351,64.101,60.402z M64.48,64.35c-0.04-0.038,0.055-0.097,0.076-0.076 C64.596,64.312,64.502,64.371,64.48,64.35z M65.239,67.234c0.034-0.109,0.066,0.008,0.152,0 C65.373,67.331,65.241,67.311,65.239,67.234z M67.44,64.653c-0.233-0.057-0.145,0.208-0.379,0.152 c0.069-0.159,0.118-0.338,0.229-0.455C67.424,64.369,67.462,64.48,67.44,64.653z M66.303,60.857 c0.211,0.119,0.441,0.217,0.606,0.381c0.085,0.219,0.243,0.363,0.38,0.529c0.058,0.778,0.179,1.492,0.151,2.354 c-0.257,0.099-0.438,0.271-0.683,0.381c-0.78-0.006-1.358-0.212-1.897-0.456c-0.171-0.259-0.355-0.505-0.532-0.759v-1.062 c0.17-0.185,0.319-0.391,0.456-0.607c0.228-0.127,0.508-0.201,0.454-0.607c-0.038-0.062-0.078-0.124-0.075-0.229 c0.158,0.045,0.245,0.159,0.379,0.229C65.865,61.028,65.952,60.811,66.303,60.857z"/> </symbol><symbol viewBox="0 0 10.847921 16.404169" id="interior"><title>interior</title><path id="interior-interior-img-1" d="M2.8174837 15.9407786c.0815-.40028.43658-.4634 2.60648-.4634 2.16991 0 2.52498.0632 2.60648.4634.0846.41546-.18496.46339-2.60648.46339s-2.69108-.0479-2.60648-.46339zm1.34658-1.65499c0-.14564.56695-.26479 1.2599-.26479.69294 0 1.25989.11915 1.25989.26479 0 .14564-.56695.26479-1.25989.26479-.69295 0-1.2599-.11915-1.2599-.26479zm.4555-1.25779c-.93823-3.05766-.79441-3.77335.75826-3.77335 1.63037 0 1.86893.59162 1.1552 2.8647-.36338 1.15729-.53571 1.37205-1.10104 1.37205-.39749 0-.72809-.18857-.81242-.4634zm.38443-4.83255c0-.29421.18665-.52959.41997-.52959.23331 0 .41996.23538.41996.52959 0 .29422-.18665.5296-.41996.5296-.23332 0-.41997-.23538-.41997-.5296zm-4.05966-.89822c-.46197-.14966-.88412-.29882-.93813-.33147-.054-.0326.25059-1.49712.67686-3.25439l.77505-3.19503h1.57696c.87107 0 1.73047-.14519 1.91992-.32437.27063-.25596.45878-.25596.89213 0 .30204.1784 1.22271.32437 2.04593.32437h1.49676l.77505 3.19503c.42628 1.75727.73086 3.21936.67685 3.2491-.75354.41487-1.89575.57689-2.44195.3464-.46394-.1958-.79989-.17756-1.21189.0658-.40885.24148-.6557.25566-.87299.0501-.39-.36886-1.39184-.36886-1.78183 0-.21731.20551-.46477.19097-.87519-.0514-.41197-.24333-.75443-.26294-1.22291-.07-.44056.18144-.92194.18011-1.49062-.004z"/></symbol><symbol viewBox="-0.8 -0.8 17.6 17.6" id="search"><title>search</title> <path d="M16.47,14.93l-3.415-3.415C14.02,10.226,14.6,8.634,14.6,6.899c0-4.253-3.447-7.699-7.7-7.699 S-0.8,2.646-0.8,6.899s3.446,7.7,7.699,7.7c1.734,0,3.326-0.58,4.613-1.546l3.417,3.416c0.203,0.202,0.418,0.33,0.771,0.33 c0.607,0,1.1-0.492,1.1-1.1C16.8,15.459,16.739,15.2,16.47,14.93z M1.399,6.899c0-3.038,2.462-5.5,5.5-5.5s5.5,2.462,5.5,5.5 s-2.462,5.5-5.5,5.5S1.399,9.938,1.399,6.899z"/> </symbol><symbol viewBox="226.001 226.19 60 59.62" id="toy"><title>toy</title> <path fill="#149080" d="M226.001,269.871l27.438,15.934v-23.346l-27.438-15.94V269.871z M277.347,238.627v2.453 c0,1.817-3.458,3.29-7.73,3.29c-4.266,0-7.727-1.473-7.727-3.29v-4.059h0.024c0.26,1.714,3.604,3.073,7.702,3.073 c4.272,0,7.729-1.474,7.729-3.285c0-1.819-3.457-3.289-7.729-3.289c-0.339,0-0.675,0.01-1.002,0.03l-4.975-2.888v3.086 c0,1.817-3.454,3.29-7.723,3.29c-2.683,0-5.045-0.583-6.433-1.467c-0.196-0.203-0.439-0.401-0.732-0.586 c-0.363-0.381-0.565-0.797-0.565-1.236v-2.986l-4.807,2.792c-0.347-0.017-0.696-0.033-1.054-0.033c-4.267,0-7.727,1.469-7.727,3.289 c0,1.811,3.46,3.285,7.727,3.285c4.099,0,7.446-1.358,7.705-3.073h0.022v4.059c0,1.817-3.455,3.29-7.727,3.29 c-4.267,0-7.727-1.473-7.727-3.29v-2.42l-5.952,3.452l27.531,15.986l27.351-15.882L277.347,238.627z M263.703,248.793 c0,1.817-3.46,3.287-7.727,3.287c-4.269,0-7.729-1.47-7.729-3.287v-4.059h0.024c0.26,1.715,3.603,3.076,7.705,3.076 c4.101,0,7.443-1.361,7.705-3.076h0.021V248.793L263.703,248.793z M258.558,262.666v23.144L286,269.871v-23.144L258.558,262.666z  M255.917,232.762c4.269,0,7.723-1.47,7.723-3.286c0-1.814-3.454-3.287-7.723-3.287c-4.27,0-7.729,1.472-7.729,3.287 C248.187,231.292,251.647,232.762,255.917,232.762"/> </symbol><symbol viewBox="52.253 53.771 23.494 20.168" id="twitter"><title>twitter</title> <path d="M75.706,57.855c-0.227-0.366-0.909-0.277-1.407-0.371h-1.112c0.142-0.353,0.343-0.646,0.52-0.963 c0.056-0.438,0.254-0.734,0.223-1.26c0.129-0.167,0.176-0.417,0.296-0.593c0.104-0.144,0.242-0.477,0.074-0.667 c-0.051-0.221-0.295-0.249-0.593-0.222c-0.088,0.036-0.169,0.079-0.222,0.148c-0.448,0.433-0.778,1.014-1.261,1.408 c-0.009,0.008-0.062,0-0.074,0c-0.087,0.005-0.033,0.046-0.075,0.074c-0.146,0.098-0.257,0.152-0.369,0.223 c-0.284,0.176-0.547,0.445-0.891,0.519c-0.529-0.211-1.156-0.326-1.852-0.37c-1.157,0.102-2.303,0.215-3.038,0.741 c-0.911,0.35-1.477,1.042-2.149,1.63c-0.049,0.32-0.342,0.398-0.37,0.741c-0.005,0.045-0.012,0.088-0.073,0.074 c0.043,0.241-0.051,0.345-0.074,0.519c-0.001,0.133,0.199,0.431,0,0.52c-0.822-0.12-1.485-0.63-2.149-0.964 c-0.718-0.36-1.468-0.604-2.074-1.111c-0.716-0.322-1.26-0.816-1.778-1.334c-0.208-0.312-0.542-0.496-0.667-0.89 c-0.379-0.164-0.175-0.912-0.741-0.889c-0.315-0.043-0.345,0.199-0.444,0.37c-0.07,0.227-0.361,0.232-0.371,0.519 c-0.004,0.046-0.011,0.088-0.074,0.075c-0.17,1.089-0.527,1.992-0.519,3.26c0.129,0.415,0.35,0.738,0.593,1.038 c-0.418,0.051-0.716,0.222-0.89,0.519c-0.06,1.073,0.378,1.647,0.742,2.297c0.134,0.384,0.352,0.685,0.593,0.963 c0.017,0.229,0.206,0.288,0.296,0.445c0.019,0.105,0.123,0.125,0.149,0.223c-0.04,0.105,0.289,0.18,0.073,0.221 c-0.413,0.131-1.016,0.07-1.259,0.371c-0.109,0.279-0.109,0.833,0,1.111c0.034,0.237,0.282,0.262,0.296,0.519 c0.499,0.417,1.082,0.747,1.631,1.112c0.574,0.166,1.211,0.271,1.852,0.37c-0.102,0.343-0.338,0.551-0.593,0.741 c-0.78,0.381-1.849,0.474-2.742,0.74c-0.555,0.038-0.956,0.23-1.556,0.223c-0.333,0.127-0.854,0.075-1.112,0.223 c-0.122,0.068-0.102,0.096-0.222,0.221c-0.134,0.412,0.111,0.74,0.444,0.89c-0.005,0.253,0.219,0.276,0.371,0.371 c0.089,0.183,0.254,0.29,0.445,0.37c0.544,0.468,1.268,0.759,1.927,1.112c0.83,0.183,1.648,0.376,2.52,0.519 c0.896,0.116,1.901,0.124,2.816,0.222h0.963c0.511,0.132,1.23,0.054,1.853,0.074c0.095-0.102,0.322-0.073,0.519-0.074 c0.522-0.269,1.196-0.385,1.631-0.74c0.574-0.241,0.989-0.642,1.557-0.89c0.866-0.765,1.937-1.324,2.519-2.37 c0.205-0.189,0.351-0.438,0.445-0.74c0.265-0.156,0.385-0.454,0.593-0.667c0.404-0.41,0.706-0.924,1.037-1.40 c0.319-0.496,0.576-1.054,0.89-1.556c-0.01-0.405,0.306-0.484,0.296-0.89c0.193-0.226,0.177-0.662,0.371-0.88 c-0.033-0.255,0.029-0.415,0.074-0.594c0.047-1.281-0.047-2.422-0.297-3.407c0.588-0.155,1.181-0.302,1.631-0.593 C75.418,58.93,75.891,58.533,75.706,57.855z M72.298,61.931c-0.153,0.859-0.615,1.41-1.038,2.001 c0.059,0.379-0.104,0.538-0.073,0.889c-0.158,0.312-0.287,0.652-0.371,1.037c-0.203,0.267-0.332,0.606-0.519,0.89 c-0.366,0.548-0.777,1.051-1.186,1.557c-0.378,0.56-0.912,0.965-1.334,1.481c-0.42,0.493-0.942,0.885-1.407,1.334 c-0.474,0.17-0.89,0.396-1.26,0.667c-0.232,0.09-0.463,0.18-0.667,0.296c-0.177,0.146-0.499,0.145-0.668,0.29 c-1.086,0.147-2.3,0.17-3.555,0.148c-1.031-0.105-2.115-0.159-3.039-0.371c-0.922-0.189-1.511-0.712-2.297-1.037 c0.153-0.242,0.634-0.154,0.963-0.222c0.031-0.166,0.394-0.003,0.444-0.149c0.257,0.06,0.285-0.109,0.52-0.07 c0.563-0.201,1.23-0.302,1.705-0.593c0.282-0.138,0.406-0.434,0.667-0.593c0.033-0.189,0.104-0.341,0.222-0.444 c0.047-0.275,0.201-0.441,0.148-0.815c0.111-0.21,0.299-0.343,0.296-0.667c-0.074-0.147-0.128-0.316-0.296-0.371 c-0.026-0.196-0.377-0.067-0.444-0.222c-0.255,0.032-0.416-0.029-0.593-0.075c-0.154-0.043-0.487,0.092-0.519-0.073 c-0.842-0.023-1.3-0.43-1.853-0.74c0.431-0.262,1.032-0.353,1.333-0.742c0.516-0.076,1.058-0.129,1.112-0.666 c0-0.717-0.771-0.661-1.333-0.815c-0.773-0.66-1.194-1.672-1.779-2.52c0.238-0.157,0.564-0.226,0.741-0.444 c0.454,0.058,0.54-0.251,0.667-0.52c0.019-0.488-0.333-0.605-0.593-0.815c-0.259-0.21-0.475-0.462-0.667-0.74 c-0.003-0.818-0.021-1.652,0.074-2.372c0.063-0.014,0.07,0.029,0.074,0.074c0.227,0.441,0.559,0.775,0.815,1.186 c0.532,0.357,0.925,0.853,1.556,1.112c0.452,0.413,1.108,0.621,1.557,1.038c0.601,0.263,1.158,0.57,1.704,0.889 c0.669,0.194,1.056,0.673,2.001,0.593c0.198-0.098,0.394-0.199,0.593-0.297c0.258-0.456-0.059-1.079,0.147-1.63 c0.255-0.659,0.797-1.031,1.26-1.481c0.29-0.155,0.555-0.335,0.815-0.519c0.347-0.098,0.675-0.216,0.964-0.37 c0.376-0.019,0.713-0.077,1.037-0.148h1.26c0.244,0.052,0.475,0.119,0.74,0.148c0.209,0.137,0.38,0.313,0.666,0.371 c0.789,0.693,1.271,1.696,1.409,3.039C72.175,60.934,72.35,61.323,72.298,61.931z M72.594,56.299 c-0.129,0.34-0.23,0.707-0.593,0.815c-0.017-0.105-0.122-0.125-0.147-0.222c-0.012-0.209,0.209-0.186,0.296-0.296 C72.312,56.511,72.395,56.348,72.594,56.299C72.587,56.209,72.702,56.253,72.594,56.299z M67.11,59.337 c0.163,0.135,0.284,0.31,0.519,0.371c0.101,0.221,0.314,0.327,0.594,0.37c0.047-0.15,0.346-0.049,0.37-0.222 c0.174-0.023,0.166-0.229,0.296-0.297c-0.018-0.55-0.129-1.006-0.37-1.333C67.761,57.803,66.843,58.265,67.11,59.337z"/> </symbol><symbol viewBox="0 0 26.987505 8.9958353" id="logo-footer"><title>logo-footer</title><path fill="#2b2728" d="M3.84 7.067c-.026-1.863-.037-1.893-.304-.865-.251.968-.59 1.448-1.027 1.46-.09.001-.39-.565-.665-1.26l-.501-1.265-.133 1.728C1.11 8.164.972 8.612.654 8.672.29 8.742.205 8.264.058 5.36c-.1-1.971-.069-3.496.074-3.639.47-.471 1.001.055 1.61 1.597.338.855.707 1.66.82 1.79.114.129.403-.47.642-1.331s.482-1.715.54-1.898c.06-.183.343-.333.632-.333.49 0 .53.22.606 3.393.081 3.37-.046 4.058-.748 4.058-.275 0-.373-.481-.394-1.93zm4.442 1.509c-.267-.698.116-1.709.648-1.709.366 0 .474.182.437.732-.043.615.066.745.68.816.719.083.731.059.731-1.365 0-1.672-.248-1.971-1.73-2.092l-1.06-.087-.083-1.455c-.101-1.794.262-2.137 2.26-2.137 1.233 0 1.41.067 1.41.532 0 .355-.177.532-.53.532-.293 0-.533-.106-.533-.237 0-.34-.725-.572-1.209-.386-.307.118-.391.47-.332 1.389.079 1.217.09 1.232 1.143 1.373 1.611.215 1.727.366 1.727 2.242 0 1.654-.016 1.693-.837 1.98-1.232.43-2.531.369-2.722-.128zM6.128 5.822c-.192-2.948-.114-3.479.512-3.479.255 0 .4.783.538 2.918.192 2.973.12 3.469-.506 3.469-.262 0-.403-.76-.544-2.908zm6.48 2.329c-.018-.34-.07-2.026-.117-3.745-.08-2.945-.055-3.127.43-3.127.403 0 .516.188.518.865.002.476.077 1.314.168 1.863.136.825.273.997.794.997.599 0 .63-.086.63-1.749 0-1.522.06-1.737.465-1.66.396.075.499.556.69 3.22.24 3.324.167 3.915-.482 3.915-.32 0-.407-.34-.407-1.597V5.537h-1.89l.08 1.52c.069 1.275.007 1.537-.383 1.617-.33.067-.474-.084-.496-.523zm4.283-1.625c0-1.233-.076-2.978-.17-3.877-.159-1.517-.132-1.636.362-1.636.433 0 .565.232.702 1.235.093.679.175 1.666.183 2.195.013.926.05.887 1.06-1.091.909-1.778 1.911-2.899 2.27-2.539.06.06-.26.79-.71 1.624L19.77 3.95l.937 2.175c.516 1.196.878 2.27.805 2.389-.342.554-.965.101-1.444-1.05-.29-.694-.62-1.489-.734-1.764-.19-.457-.253-.433-.712.266-.277.422-.572 1.185-.656 1.696-.096.59-.32.96-.613 1.017-.408.078-.46-.169-.46-2.154zm5.316 1.18c0-.417-.074-1.645-.165-2.728-.142-1.694-.094-2.056.34-2.591.515-.634 2.648-1.232 3.384-.95.222.086.446.75.56 1.656.103.832.325 1.602.493 1.712.228.149.225.251-.011.405-.174.113-.353.86-.399 1.66-.064 1.135-.185 1.475-.547 1.544-.398.076-.466-.126-.466-1.394 0-1.234-.078-1.484-.465-1.487a5.2 5.2 0 0 1-1.063-.164c-.572-.154-.598-.091-.598 1.467 0 1.45-.058 1.628-.531 1.628-.408 0-.532-.178-.532-.758zm3.037-4.099c-.225-1.613-.308-1.796-.815-1.796-.814 0-1.425.817-1.425 1.904v1.023h2.399zM5.83 1.427c-.235-.613 0-1.332.466-1.422.522-.1.876 1.302.405 1.602-.464.295-.708.245-.87-.18z"/></symbol><symbol viewBox="0 0 8.4666728 5.55625" id="mail"><title>mail</title><path fill="#cecece" d="M.32 5.227C-.107 4.802-.107.754.32.33c.441-.44 7.385-.44 7.827 0 .426.424.426 4.472 0 4.897-.442.44-7.386.44-7.827 0zm7.465-.445c.08-.129-.286-.562-.814-.962-.958-.728-.959-.728-1.848-.251-.859.46-.92.46-1.78 0-.889-.477-.89-.477-1.848.25-.527.401-.893.834-.813.963.19.306 6.913.306 7.103 0zm-6.13-1.557c.504-.432.292-.896-.64-1.392-.436-.233-.484-.14-.484.951 0 1.26.113 1.305 1.123.44zm6.232-1.016L7.803 1.5l-.764.657-.764.657.764.6c.762.6.764.6.848.052.046-.302.046-.868 0-1.257zm-1.769.15c1-.739 1.751-1.45 1.67-1.58C7.595.469.872.467.68.778.563.966 3.821 3.663 4.201 3.692c.055.004.918-.596 1.917-1.333z"/></symbol><symbol viewBox="0 0 5.5562529 5.2916692" id="menu-close"><title>menu-close</title><path fill="#322f2f" d="M.014 5.246c-.101-.101.35-.728 1.005-1.392l1.189-1.208-1.19-1.208C-.515-.122-.184-.474 1.46.968l1.26 1.107.74-.525A9.45 9.45 0 0 0 4.727.441c.29-.321.65-.51.799-.418.148.092-.275.72-.94 1.395L3.38 2.646l1.208 1.228c.665.676 1.088 1.303.94 1.395-.149.091-.508-.097-.8-.418A9.45 9.45 0 0 0 3.46 3.74l-.739-.525-1.26 1.107c-.695.61-1.345 1.025-1.447.924z"/></symbol><symbol viewBox="0 0 19.958 14" id="menu"><title>menu</title><path fill="#231F20" d="M0 0h19.958v2H0zm0 6h19.958v2H0zm0 6h19.958v2H0z"/></symbol><symbol viewBox="0 0 39.337028 19.021434" id="mishka-logo-desktop"><title>mishka-logo-desktop</title><path fill="#0b0b0b" d="M30.668 18.515c-.358-.668-.348-1.075.028-1.075.361 0 1 .793 1.013 1.256.013.518-.737.388-1.041-.18zm.873-.96c-.255-.667.341-1.06.671-.443.276.516.164.857-.283.857-.126 0-.3-.187-.388-.415zM7.64 17.18c0-.168.107-.505.238-.75.21-.394.061-.446-1.281-.446-.91 0-1.698.148-1.965.369-.577.478-.882.173-.403-.403.485-.585.52-1.32.207-4.331-.165-1.587-.17-2.985-.014-3.792.326-1.684.174-2.14-.906-2.722-.497-.267-.903-.578-.903-.69 0-.338.772-.231 1.427.198.55.361.65.361.95 0 .259-.313.94-.403 3.05-.403h2.715l-.036-1.389c-.036-1.365-.019-1.397 1-1.895.94-.459 1.135-.471 2.108-.132.686.24 1.295.707 1.692 1.3.537.803 1.475 1.587 1.023.856-.092-.15.015-.342.238-.427a.42.42 0 0 1 .555.237c.083.215.254.392.379.392s.164-.166.086-.37c-.078-.204-.011-.45.148-.55.332-.205 1.587.884 1.594 1.383.003.182.12.33.263.33.16 0 .146-.247-.035-.644-.303-.665-.158-1.472.264-1.472.132 0 .323.387.426.86.18.832.193.84.43.242.328-.832.875-.593 1.037.453.132.849.134.85.603.298.258-.304.594-.476.745-.382.152.093.34-.08.42-.386.08-.306.324-.556.54-.556.29 0 .351.178.23.662-.269 1.07.304.759.854-.463C26.063.9 26.965.188 28.503.04c1.074-.104 1.398-.028 1.86.435.602.601.709 1.457.313 2.498-.24.631-.204.656 1.212.833 1.146.143 1.558.093 1.922-.236.593-.537.919-.536.712.003-.106.278.012.466.35.555.282.074.58.31.663.525.115.3.311.2.835-.423.377-.448.816-.814.976-.814s-.039.344-.442.765c-.462.482-.627.83-.446.941.157.098.286.756.286 1.463 0 1.782.183 2.185.834 1.836.284-.152.719-.234.966-.182.318.066.128.28-.652.737-1.031.601-1.113.737-1.274 2.105a15.093 15.093 0 0 1-.67 2.823c-.274.748-.426 1.43-.34 1.518.088.087-.306.353-.874.591-.958.402-1.396.4-6.06-.016-2.948-.263-6.666-.413-8.992-.363l-3.966.085-.348.728c-.449.937-1.212 1.02-.86.093l.242-.634-2.881-.023c-2.867-.024-2.883-.02-3.224.68-.361.74-1.005 1.135-1.005.616zm3.965-6.818c-.002-1.855-.11-3.54-.238-3.743-.435-.687-.947-.099-1.445 1.66-.273.964-.57 1.75-.661 1.749-.091-.002-.503-.835-.914-1.852-.412-1.017-.829-1.847-.926-1.845-.768.018-.878.533-.793 3.728.08 3.074.119 3.28.615 3.28.482 0 .523-.154.462-1.72-.063-1.605-.04-1.685.347-1.19.228.29.483.862.566 1.27.222 1.085 1.189.887 1.429-.292.304-1.496.503-1.272.503.565 0 1.587.053 1.763.53 1.763.501 0 .528-.175.525-3.373zm6.742 2.821c.268-.277.316-.783.185-1.961-.17-1.526-.207-1.59-.97-1.66-1.92-.176-1.985-.23-1.985-1.652 0-1.278.024-1.318.766-1.318.436 0 .83.17.918.397.174.453.405.49.945.148.315-.2.32-.312.034-.657-.412-.497-2.073-.554-3.059-.105-.634.289-.68.422-.608 1.786l.078 1.473 1.104.08c1.375.1 1.607.378 1.708 2.037.08 1.308.072 1.323-.704 1.323-.692 0-.779-.086-.735-.728.038-.55-.07-.727-.442-.727-.53 0-.991 1.326-.652 1.875.256.414 2.954.168 3.417-.31zm4.615-1.923c-.034-3.177-.294-4.8-.77-4.8-.306 0-.403.364-.423 1.587-.024 1.49-.066 1.592-.692 1.668-.642.077-.673.013-.851-1.802-.155-1.567-.26-1.868-.631-1.797-.326.063-.442.352-.433 1.075.084 6.217.09 6.28.673 6.28.492 0 .547-.14.495-1.257-.086-1.857-.061-1.918.804-1.918.79 0 .793.005.793 1.543 0 1.662.111 1.939.688 1.718.279-.108.365-.677.347-2.297zm-9.068 1.814c.27-.705-.273-5.77-.632-5.888-.557-.184-.665.627-.468 3.514.146 2.143.274 2.77.568 2.77.209 0 .448-.178.532-.396zm10.897-.635c.083-.866.72-2.143 1.07-2.143.094 0 .447.714.786 1.587.455 1.175.747 1.588 1.123 1.588.694 0 .642-.42-.319-2.596-.913-2.068-.895-2.564.15-4.104.593-.874.611-.973.18-.973-.62 0-1.087.57-2.018 2.454-.414.84-.846 1.435-.958 1.323-.112-.113-.24-.98-.284-1.925-.07-1.491-.148-1.72-.588-1.72-.464 0-.498.168-.402 1.985.058 1.091.107 2.792.11 3.78.006 1.643.051 1.789.535 1.72.39-.056.552-.314.615-.976zm5.074-.63c.073-.837.221-1.521.33-1.518.11.003.627.005 1.15.005h.95l-.09 1.465c-.083 1.34-.046 1.459.438 1.39.443-.065.542-.312.611-1.527.045-.797.223-1.536.396-1.643.227-.14.189-.288-.137-.535-.294-.223-.477-.799-.528-1.664l-.077-1.323-1.5.006c-2.39.01-2.601.337-2.601 4.024 0 2.734.044 3.013.463 2.933.357-.068.493-.435.595-1.612zm.86-2.252c-.8-.082-.86-.157-.856-1.064.005-1.272.268-1.645 1.208-1.713.746-.054.775-.011.854 1.238.095 1.494-.034 1.659-1.206 1.539zm-17.218-3.89c-.104-.956-.172-1.037-.696-.836-.247.094-.409.482-.409.977 0 .7.088.808.596.736.49-.07.58-.225.509-.876zm2.335 11.235c0-.14.179-.256.397-.256s.397.047.397.104c0 .057-.179.172-.397.256-.218.084-.397.037-.397-.104zm21.627-4.646c-.352-.352.11-.637 1.032-.637.628 0 .897.108.824.33-.118.362-1.563.6-1.856.307zM.022 11.852c.134-.404 1.74-.805 1.938-.484.17.276-.07.41-1.165.644-.683.147-.863.11-.773-.16zm8.015-8.435c.09-.146.282-.265.428-.265.145 0 .19.12.1.265-.089.145-.282.264-.427.264-.146 0-.191-.119-.101-.264zM5.407 2.7c-.089-.23-.104-.476-.034-.546.192-.191.944.152.944.431 0 .446-.747.54-.91.115zm27.104.215c0-.13.178-.305.397-.389.241-.093.396 0 .396.237 0 .213-.178.388-.396.388s-.397-.106-.397-.236z"/></symbol><symbol viewBox="0 0 22.489587 9.2604132" id="mishka-logo-mobile"><title>mishka-logo-mobile</title><path fill="#191919" d="M1.1 8.95c.601-.37 17.722-.628 19.304-.29l.919.196-1.313.194c-.723.107-5.39.2-10.374.209C2.4 9.271.68 9.209 1.1 8.951zm2.2-2.91c-.033-1.634-.038-1.644-.31-.664-.173.627-.433.995-.701.995-.25 0-.584-.411-.807-.995l-.38-.995-.132 1.46C.874 6.9.73 7.3.444 7.3c-.611 0-.582-5.79.03-5.912.3-.06.597.348 1.014 1.386.325.808.684 1.41.8 1.338.114-.071.36-.727.545-1.456.242-.956.464-1.327.795-1.327.403 0 .469.347.541 2.853.046 1.569-.02 3.002-.146 3.184-.473.684-.691.283-.724-1.326zm3.72 1.273C6.596 6.796 6.775 6 7.34 5.89c.339-.065.457.089.457.595 0 .499.138.682.51.682.69 0 .764-.202.573-1.592-.159-1.159-.194-1.198-1.214-1.327-1.033-.13-1.052-.152-1.134-1.317-.102-1.44.342-1.867 1.944-1.867 1.175 0 1.823.657.974.987-.243.094-.485.03-.543-.143-.056-.172-.389-.313-.738-.313-.565 0-.634.116-.634 1.061 0 .987.052 1.062.737 1.062 1.096 0 1.586.517 1.635 1.724.064 1.617.05 1.653-.836 1.965-1.113.392-1.673.366-2.051-.094zM5.045 4.89c-.15-2.025-.116-2.614.162-2.788.584-.365.704.039.796 2.668.075 2.153.026 2.526-.34 2.6-.362.075-.457-.309-.618-2.48zm5.33-.366c-.091-3.244-.064-3.461.439-3.461.228 0 .409.548.53 1.606.149 1.291.27 1.59.617 1.524.323-.062.452-.435.512-1.474.057-1 .186-1.39.46-1.39.208 0 .388.089.398.198.482 5.133.458 5.905-.18 5.905-.244 0-.365-.327-.368-.995-.005-1.232-.303-1.74-.946-1.613-.395.078-.494.334-.494 1.28 0 .896-.107 1.203-.443 1.27-.39.08-.453-.259-.525-2.85zm3.643-.17c-.172-3.24-.129-3.556.492-3.556.283 0 .378.363.378 1.443 0 .795.097 1.505.215 1.578.118.074.533-.52.92-1.32.635-1.307 1.304-1.98 1.635-1.645.067.067-.153.645-.487 1.284L16.563 3.3l.75 1.806c.413.993.68 1.923.592 2.066-.358.585-.838.185-1.284-1.067-.644-1.81-1.14-1.724-1.459.253-.09.556-.319.968-.565 1.016-.352.068-.44-.392-.58-3.02zm4.442 2.883c-.314-.317-.162-4.74.178-5.21.452-.624 2.486-1.085 2.977-.674.207.174.364.797.364 1.445 0 .663.138 1.196.329 1.274.252.104.244.194-.038.394-.248.175-.314.524-.205 1.078.195.981-.007 1.622-.508 1.622-.26 0-.366-.36-.366-1.26 0-1.25-.008-1.261-.92-1.327l-.918-.066v1.298c0 .87-.122 1.346-.368 1.441-.203.079-.44.072-.525-.016zm2.469-4.45c0-1.218-.207-1.402-1.16-1.032-.28.108-.416.497-.416 1.194 0 .97.047 1.033.788 1.033.759 0 .788-.044.788-1.194zM4.909.799c0-.937.648-1.099.875-.219.178.688.018 1.016-.497 1.016-.246 0-.379-.28-.379-.796z"/></symbol><symbol viewBox="0 0 29.897873 12.170837" id="mishka-logo-tablet"><title>mishka-logo-tablet</title><path fill="#0b0b0b" d="M24.116 11.857c-.263-.26-2.835-.318-11.426-.26-9.18.062-11.214.009-11.833-.309l-.746-.383L.02 6.72C-.075 2.35.156.877 1.004.463 1.257.34 6.522.203 12.703.16c6.18-.043 12.36-.104 13.733-.134 3.551-.08 3.408-.325 3.438 5.893l.024 5.038-1.76.611c-1.968.684-3.512.795-4.022.29zM6.896 9.214c.1-.161.095-1.8-.012-3.642-.166-2.842-.26-3.335-.623-3.266-.267.05-.648.788-1.015 1.962l-.587 1.88-.543-1.209c-.298-.664-.629-1.48-.735-1.813-.206-.646-1.098-.83-1.306-.269-.068.185-.066 1.696.006 3.359.118 2.728.18 3.022.637 3.022.44 0 .51-.224.524-1.68.017-1.637.027-1.658.386-.872.203.443.437 1.023.52 1.287.236.75 1.238.094 1.265-.827.027-.922.158-.547.38 1.085.168 1.236.668 1.681 1.103.983zm5.924.03c.629-.236.695-.4.695-1.726 0-1.727-.44-2.31-1.744-2.31-.844 0-.901-.061-1.045-1.13-.084-.62-.093-1.225-.02-1.343.23-.367 1.194-.233 1.357.19.233.602 1.181.508 1.181-.117 0-.643-.833-.93-2.046-.704-1.186.22-1.745.796-1.745 1.798 0 1.28.442 1.843 1.445 1.843 1.203 0 1.534.418 1.534 1.935 0 1.196-.049 1.29-.677 1.29-.529 0-.677-.138-.677-.628 0-.763-.202-.994-.704-.803-.222.085-.38.522-.38 1.056 0 .882.035.912 1.066.912.586 0 1.378-.118 1.76-.262zm4.715.025c.29-.182.325-.887.168-3.488-.174-2.903-.25-3.26-.689-3.26-.41 0-.507.26-.574 1.545-.072 1.369-.151 1.555-.691 1.631-.577.081-.61-.004-.61-1.634 0-1.84-.105-2.125-.703-1.897-.298.113-.38.884-.38 3.608 0 3.285.029 3.464.542 3.464.586 0 .615-.097.546-1.813-.041-1.048.01-1.142.623-1.142.788 0 .998.427.998 2.037 0 1.207.121 1.357.77.95zm5.091-.17c.087-.225-.204-1.291-.647-2.37l-.804-1.96.733-1.527c.5-1.04.623-1.526.387-1.526-.474 0-1.204.972-2.006 2.674-.608 1.29-.689 1.366-.853.786-.099-.352-.193-1.207-.207-1.9-.015-.693-.16-1.341-.322-1.44-.697-.428-.837.42-.644 3.895.17 3.047.257 3.522.636 3.45.28-.052.47-.415.527-1.004.049-.507.31-1.201.58-1.542l.491-.62.464 1.141c.256.628.57 1.414.7 1.746.27.696.735.79.965.196zM8.972 6.408c-.087-3.086-.159-3.399-.727-3.183-.325.124-.417.616-.417 2.246 0 2.772.22 3.816.781 3.703.374-.075.427-.478.363-2.766zm15.321 1.129l.082-1.56.866.184c.476.1.9.213.942.25.042.037.15.683.24 1.436.147 1.234.214 1.343.668 1.102.388-.206.505-.575.505-1.586 0-.725.13-1.397.287-1.494.187-.115.144-.284-.123-.486-.247-.186-.443-.847-.49-1.653-.077-1.291-.113-1.347-.933-1.426-1.163-.112-2.755.594-3.045 1.35-.131.343-.174 1.745-.095 3.116.12 2.1.212 2.479.579 2.41.329-.062.455-.465.517-1.643zm.054-2.98c0-1.39.237-1.768 1.112-1.768.76 0 .783.041.783 1.344v1.343h-.948c-.898 0-.947-.048-.947-.919zm-15.64-2.98c-.154-.795-.95-.828-1.102-.045-.167.863.155 1.312.725 1.01.364-.194.472-.47.376-.965z"/></symbol><symbol viewBox="0 0 6.5773434 6.2943442" id="phone"><title>phone</title><path fill="#cecece" d="M2.494 5.78C.12 4.42-.913.888.983.605c.42-.062.604.096.74.636.098.395.051.924-.106 1.175-.215.345-.179.61.148 1.084.672.976 1.17 1.248 2.038 1.112 1.085-.169 1.974.486 1.567 1.155-.425.698-1.67.704-2.876.013zm1.04-2.86c-.285-.46.04-.558.402-.12.21.25.23.402.054.402-.155 0-.36-.127-.456-.282zm.731-.69c-.758-.769-.8-.88-.337-.88.292 0 .723.294.959.653.687 1.05.32 1.184-.622.228zm1.793.423c0-.302-.348-.898-.773-1.323C4.86.905 4.265.557 3.962.557c-.302 0-.55-.12-.55-.265 0-.808 2.073.2 2.743 1.333.486.824.567 1.577.168 1.577-.145 0-.265-.247-.265-.55z"/></symbol><symbol viewBox="247.3 382.56 100.678 76.891" id="play"><title>play</title><path fill="#63D1BB" d="M344.255 400.708s-.92-7.008-3.785-10.078c-3.632-4.041-7.674-4.066-9.541-4.297-13.326-1.023-33.303-1.023-33.303-1.023h-.051s-19.978 0-33.304 1.023c-1.867.23-5.908.256-9.54 4.297-2.84 3.096-3.786 10.078-3.786 10.078s-.896 8.211-.896 16.422v7.699c0 8.21.947 16.421.947 16.421s.921 7.009 3.785 10.078c3.632 4.041 8.364 3.913 10.487 4.349 7.622.767 32.356 1.022 32.356 1.022s20.003-.025 33.329-1.048c1.867-.23 5.908-.256 9.54-4.298 2.84-3.069 3.786-10.078 3.786-10.078s.946-8.21.946-16.421v-7.699c-.023-8.236-.97-16.447-.97-16.447z"/><path fill="#FFF" d="M297.614 459.449h-.016c-1.015-.011-24.946-.266-32.604-1.037l-.14-.014-.137-.028c-.271-.056-.668-.107-1.126-.167-2.503-.328-7.159-.938-10.839-5.019-3.354-3.616-4.377-10.771-4.483-11.576l-.005-.043c-.039-.342-.965-8.463-.965-16.736v-7.699c0-8.266.875-16.378.912-16.72l.009-.071c.108-.802 1.155-7.928 4.474-11.557 3.996-4.439 8.531-4.899 10.712-5.121.192-.02.37-.037.529-.058l.126-.013c13.277-1.019 33.312-1.031 33.514-1.031h.051c.201 0 20.236.013 33.514 1.031l.126.013c.159.021.337.038.529.058 2.179.221 6.71.682 10.704 5.112 3.354 3.616 4.377 10.771 4.483 11.577l.005.043c.039.342.965 8.459.99 16.753v7.708c0 8.273-.926 16.395-.965 16.736l-.007.053c-.108.805-1.156 7.953-4.478 11.562-3.994 4.435-8.527 4.896-10.707 5.117-.193.02-.371.037-.53.057l-.126.013c-13.276 1.02-33.334 1.057-33.535 1.058l-.015-.001zm-31.944-6.497c7.477.729 31.216.989 31.968.997.657-.001 20.135-.049 33.047-1.036.178-.021.371-.041.58-.062 1.836-.186 4.608-.468 7.186-3.335l.026-.029c1.825-1.974 2.853-6.928 3.075-8.552.059-.514.926-8.358.926-16.08v-7.699c-.023-7.76-.896-15.627-.951-16.109-.32-2.382-1.434-6.789-3.066-8.539l-.035-.038c-2.577-2.868-5.351-3.149-7.186-3.336a34.367 34.367 0 0 1-.58-.062c-13.066-.998-32.834-1.011-33.033-1.011h-.051c-.198 0-19.967.013-33.033 1.011a33.29 33.29 0 0 1-.58.062c-1.835.187-4.607.468-7.186 3.336l-.019.021c-1.828 1.993-2.855 6.924-3.082 8.552-.062.591-.875 8.399-.875 16.089v7.699c0 7.749.871 15.598.926 16.083.32 2.381 1.433 6.789 3.066 8.539l.035.039c2.322 2.584 5.303 2.975 7.479 3.259.481.061.939.121 1.363.201z"/><path fill="#FFF" d="M285.733 403.138v35.708l29.747-17.854z"/></symbol><symbol viewBox="0 0 8.7312531 5.8208315" id="vector"><title>vector</title><g id="vector-layer1" transform="translate(-154.81 -127.895)"><path d="M211.768 30.335c0-12.625.376-20.311.992-20.311 1.9 0 31.34 18.759 31.32 19.956-.007.413-1.711 1.864-3.788 3.223-8.93 5.846-26.011 16.479-27.214 16.94-1.046.402-1.31-3.586-1.31-19.808z" id="vector-path1644" transform="translate(57.786 110.77) scale(.26458)" opacity=".25" fill="#37c8ab" fill-opacity="0" stroke-width=".382"/><path d="M211.768 30.335c0-12.625.376-20.311.992-20.311 1.9 0 31.34 18.759 31.32 19.956-.007.413-1.711 1.864-3.788 3.223-8.93 5.846-26.011 16.479-27.214 16.94-1.046.402-1.31-3.586-1.31-19.808z" id="vector-path1646" transform="translate(57.786 110.77) scale(.26458)" opacity=".25" fill="#37c8ab" fill-opacity="0" stroke-width=".382"/><path d="M211.768 30.335c0-12.625.376-20.311.992-20.311 1.9 0 31.34 18.759 31.32 19.956-.007.413-1.711 1.864-3.788 3.223-8.93 5.846-26.011 16.479-27.214 16.94-1.046.402-1.31-3.586-1.31-19.808z" id="vector-path1648" transform="translate(57.786 110.77) scale(.26458)" opacity=".25" fill="#37c8ab" fill-opacity="0" stroke-width=".382"/><path d="M211.768 30.335c0-12.625.376-20.311.992-20.311 1.9 0 31.34 18.759 31.32 19.956-.007.413-1.711 1.864-3.788 3.223-8.93 5.846-26.011 16.479-27.214 16.94-1.046.402-1.31-3.586-1.31-19.808z" id="vector-path1650" transform="translate(57.786 110.77) scale(.26458)" opacity=".25" fill="#002b22" fill-opacity="0" stroke-width=".382"/><path d="M211.768 30.335c0-12.625.376-20.311.992-20.311 1.9 0 31.34 18.759 31.32 19.956-.007.413-1.711 1.864-3.788 3.223-8.93 5.846-26.011 16.479-27.214 16.94-1.046.402-1.31-3.586-1.31-19.808z" id="vector-path1652" transform="translate(57.786 110.77) scale(.26458)" opacity=".25" fill="#002b22" fill-opacity="0" stroke-width=".382"/><path d="M211.768 30.335c0-12.625.376-20.311.992-20.311 1.9 0 31.34 18.759 31.32 19.956-.007.413-1.711 1.864-3.788 3.223-8.93 5.846-26.011 16.479-27.214 16.94-1.046.402-1.31-3.586-1.31-19.808z" id="vector-path1654" transform="translate(57.786 110.77) scale(.26458)" opacity=".25" fill="#002b22" fill-opacity="0" stroke-width=".382"/><path d="M211.768 30.335c0-12.625.376-20.311.992-20.311 1.9 0 31.34 18.759 31.32 19.956-.007.413-1.711 1.864-3.788 3.223-8.93 5.846-26.011 16.479-27.214 16.94-1.046.402-1.31-3.586-1.31-19.808z" id="vector-path1656" transform="translate(57.786 110.77) scale(.26458)" opacity=".25" fill="#002b22" fill-opacity="0" stroke-width=".382"/><path d="M211.768 30.335c0-12.625.376-20.311.992-20.311 1.9 0 31.34 18.759 31.32 19.956-.007.413-1.711 1.864-3.788 3.223-8.93 5.846-26.011 16.479-27.214 16.94-1.046.402-1.31-3.586-1.31-19.808z" id="vector-path1658" transform="translate(57.786 110.77) scale(.26458)" opacity=".25" fill="#002b22" fill-opacity="0" stroke-width=".382"/><path d="M192.575 67.58c-9.547-.944-12.57-2.356-14.851-6.936-1.611-3.236-1.816-6.676-1.816-30.417 0-24.75.152-27.074 2.02-30.81 1.113-2.226 3.313-4.654 4.899-5.407 4.206-1.996 32.36-2.967 60.063-2.073 33.308 1.076 31.848-.447 32.349 33.739.427 29.172-.001 32.958-4.247 37.591l-3.233 3.528-14.106.86c-16.761 1.02-50.423.98-61.078-.075zm31.035-22.855c5.988-3.693 13.54-8.51 16.784-10.705l5.898-3.99-3.877-2.649c-2.133-1.457-9.787-6.42-17.01-11.028-12.563-8.017-13.16-8.28-13.789-6.092-1.479 5.15-.817 41.179.756 41.179.194 0 5.251-3.022 11.238-6.715z" id="vector-path1660" transform="translate(57.786 110.77) scale(.26458)" opacity=".25" fill="#002b22" fill-opacity="0" stroke-width=".382"/><path d="M192.575 67.58c-9.547-.944-12.57-2.356-14.851-6.936-1.611-3.236-1.816-6.676-1.816-30.417 0-24.75.152-27.074 2.02-30.81 1.113-2.226 3.313-4.654 4.899-5.407 4.206-1.996 32.36-2.967 60.063-2.073 33.308 1.076 31.848-.447 32.349 33.739.427 29.172-.001 32.958-4.247 37.591l-3.233 3.528-14.106.86c-16.761 1.02-50.423.98-61.078-.075zm31.035-22.855c5.988-3.693 13.54-8.51 16.784-10.705l5.898-3.99-3.877-2.649c-2.133-1.457-9.787-6.42-17.01-11.028-12.563-8.017-13.16-8.28-13.789-6.092-1.479 5.15-.817 41.179.756 41.179.194 0 5.251-3.022 11.238-6.715z" id="vector-path1662" transform="translate(57.786 110.77) scale(.26458)" opacity=".25" fill="#002b22" fill-opacity="0" stroke-width=".382"/><path d="M192.575 67.58c-9.547-.944-12.57-2.356-14.851-6.936-1.611-3.236-1.816-6.676-1.816-30.417 0-24.75.152-27.074 2.02-30.81 1.113-2.226 3.313-4.654 4.899-5.407 4.206-1.996 32.36-2.967 60.063-2.073 33.308 1.076 31.848-.447 32.349 33.739.427 29.172-.001 32.958-4.247 37.591l-3.233 3.528-14.106.86c-16.761 1.02-50.423.98-61.078-.075zm31.035-22.855c5.988-3.693 13.54-8.51 16.784-10.705l5.898-3.99-3.877-2.649c-2.133-1.457-9.787-6.42-17.01-11.028-12.563-8.017-13.16-8.28-13.789-6.092-1.479 5.15-.817 41.179.756 41.179.194 0 5.251-3.022 11.238-6.715z" id="vector-path1664" transform="translate(57.786 110.77) scale(.26458)" opacity=".25" fill="#b7c8be" fill-opacity="0" stroke-width=".382"/><path d="M211.768 30.335c0-12.625.376-20.311.992-20.311 1.9 0 31.34 18.759 31.32 19.956-.007.413-1.711 1.864-3.788 3.223-8.93 5.846-26.011 16.479-27.214 16.94-1.046.402-1.31-3.586-1.31-19.808z" id="vector-path1666" transform="translate(57.786 110.77) scale(.26458)" opacity=".25" fill="#b7c8be" fill-opacity="0" stroke-width=".382"/><path d="M211.768 30.335c0-12.625.376-20.311.992-20.311 1.9 0 31.34 18.759 31.32 19.956-.007.413-1.711 1.864-3.788 3.223-8.93 5.846-26.011 16.479-27.214 16.94-1.046.402-1.31-3.586-1.31-19.808z" id="vector-path1668" transform="translate(57.786 110.77) scale(.26458)" opacity=".25" fill="#b7c8be" fill-opacity="0" stroke-width=".382"/><path d="M211.768 30.335c0-12.625.376-20.311.992-20.311 1.9 0 31.34 18.759 31.32 19.956-.007.413-1.711 1.864-3.788 3.223-8.93 5.846-26.011 16.479-27.214 16.94-1.046.402-1.31-3.586-1.31-19.808z" id="vector-path1670" transform="translate(57.786 110.77) scale(.26458)" opacity=".25" fill="#b7c8be" fill-opacity="0" stroke-width=".382"/><path d="M211.768 30.335c0-12.625.376-20.311.992-20.311 1.9 0 31.34 18.759 31.32 19.956-.007.413-1.711 1.864-3.788 3.223-8.93 5.846-26.011 16.479-27.214 16.94-1.046.402-1.31-3.586-1.31-19.808z" id="vector-path1672" transform="translate(57.786 110.77) scale(.26458)" opacity=".25" fill="#b7c8be" fill-opacity="0" stroke-width=".382"/><path d="M211.768 30.335c0-12.625.376-20.311.992-20.311 1.9 0 31.34 18.759 31.32 19.956-.007.413-1.711 1.864-3.788 3.223-8.93 5.846-26.011 16.479-27.214 16.94-1.046.402-1.31-3.586-1.31-19.808z" id="vector-path1674" transform="translate(57.786 110.77) scale(.26458)" opacity=".25" fill="#b7c8be" fill-opacity="0" stroke-width=".382"/><path d="M211.768 30.335c0-12.625.376-20.311.992-20.311 1.9 0 31.34 18.759 31.32 19.956-.007.413-1.711 1.864-3.788 3.223-8.93 5.846-26.011 16.479-27.214 16.94-1.046.402-1.31-3.586-1.31-19.808z" id="vector-path1676" transform="translate(57.786 110.77) scale(.26458)" opacity=".25" fill="#b7c8be" fill-opacity="0" stroke-width=".382"/><path d="M206.356 50.683c-.794-4.802-.62-31.193.228-34.74l.638-2.668 15.895 10.111c8.743 5.562 15.677 10.466 15.41 10.898-.426.688-17.433 11.65-27.89 17.976l-3.655 2.212z" id="vector-path5348" transform="translate(57.786 110.77) scale(.26458)" opacity=".25" fill="#b7c8be" fill-opacity="0" stroke-width=".382"/><path d="M206.356 50.683c-.794-4.802-.62-31.193.228-34.74l.638-2.668 15.895 10.111c8.743 5.562 15.677 10.466 15.41 10.898-.426.688-17.433 11.65-27.89 17.976l-3.655 2.212z" id="vector-path5350" transform="translate(57.786 110.77) scale(.26458)" opacity=".25" fill="#b7c8be" fill-opacity="0" stroke-width=".382"/><path d="M206.356 50.683c-.794-4.802-.62-31.193.228-34.74l.638-2.668 15.895 10.111c8.743 5.562 15.677 10.466 15.41 10.898-.426.688-17.433 11.65-27.89 17.976l-3.655 2.212z" id="vector-path5352" transform="translate(57.786 110.77) scale(.26458)" opacity=".25" fill="#b7c8be" fill-opacity="0" stroke-width=".382"/><path d="M206.356 50.683c-.794-4.802-.62-31.193.228-34.74l.638-2.668 15.895 10.111c8.743 5.562 15.677 10.466 15.41 10.898-.426.688-17.433 11.65-27.89 17.976l-3.655 2.212z" id="vector-path5354" transform="translate(57.786 110.77) scale(.26458)" opacity=".25" fill="#b7c8be" fill-opacity="0" stroke-width=".382"/><path d="M188.534 71.617c-10.109-.869-13.451-2.022-15.668-5.404-2.413-3.684-3.81-20.774-3.311-40.532.372-14.734.738-17.855 2.58-21.975 1.468-3.282 3.044-5.147 4.98-5.891 5.337-2.052 36.024-3.092 60.331-2.044 33.316 1.435 31.897-.253 31.9 37.925 0 24.54-.133 26.474-2.118 30.574-1.165 2.407-3.035 4.867-4.154 5.466-4.37 2.34-54.498 3.604-74.54 1.881zm33.888-25.779c8.491-5.303 15.943-10.25 16.56-10.993.889-1.07-1.446-3.013-11.279-9.384-6.82-4.418-14.494-9.25-17.053-10.736l-4.654-2.704-.71 11.225c-.674 10.656.127 32.234 1.197 32.234.276 0 7.448-4.339 15.94-9.642z" id="vector-path5356" transform="translate(57.786 110.77) scale(.26458)" opacity=".25" fill="#b7c8be" fill-opacity="0" stroke-width=".382"/><path d="M188.534 71.617c-10.109-.869-13.451-2.022-15.668-5.404-2.413-3.684-3.81-20.774-3.311-40.532.372-14.734.738-17.855 2.58-21.975 1.468-3.282 3.044-5.147 4.98-5.891 5.337-2.052 36.024-3.092 60.331-2.044 33.316 1.435 31.897-.253 31.9 37.925 0 24.54-.133 26.474-2.118 30.574-1.165 2.407-3.035 4.867-4.154 5.466-4.37 2.34-54.498 3.604-74.54 1.881zm33.888-25.779c8.491-5.303 15.943-10.25 16.56-10.993.889-1.07-1.446-3.013-11.279-9.384-6.82-4.418-14.494-9.25-17.053-10.736l-4.654-2.704-.71 11.225c-.674 10.656.127 32.234 1.197 32.234.276 0 7.448-4.339 15.94-9.642z" id="vector-path5358" transform="translate(57.786 110.77) scale(.26458)" opacity=".25" fill="#b7c8be" fill-opacity="0" stroke-width=".382"/><path d="M188.534 71.617c-10.109-.869-13.451-2.022-15.668-5.404-2.413-3.684-3.81-20.774-3.311-40.532.372-14.734.738-17.855 2.58-21.975 1.468-3.282 3.044-5.147 4.98-5.891 5.337-2.052 36.024-3.092 60.331-2.044 33.316 1.435 31.897-.253 31.9 37.925 0 24.54-.133 26.474-2.118 30.574-1.165 2.407-3.035 4.867-4.154 5.466-4.37 2.34-54.498 3.604-74.54 1.881zm33.888-25.779c8.491-5.303 15.943-10.25 16.56-10.993.889-1.07-1.446-3.013-11.279-9.384-6.82-4.418-14.494-9.25-17.053-10.736l-4.654-2.704-.71 11.225c-.674 10.656.127 32.234 1.197 32.234.276 0 7.448-4.339 15.94-9.642z" id="vector-path5360" transform="translate(57.786 110.77) scale(.26458)" opacity=".25" fill="#b7c8be" fill-opacity="0" stroke-width=".382"/><path d="M188.534 71.617c-10.109-.869-13.451-2.022-15.668-5.404-2.413-3.684-3.81-20.774-3.311-40.532.372-14.734.738-17.855 2.58-21.975 1.468-3.282 3.044-5.147 4.98-5.891 5.337-2.052 36.024-3.092 60.331-2.044 33.316 1.435 31.897-.253 31.9 37.925 0 24.54-.133 26.474-2.118 30.574-1.165 2.407-3.035 4.867-4.154 5.466-4.37 2.34-54.498 3.604-74.54 1.881zm33.888-25.779c8.491-5.303 15.943-10.25 16.56-10.993.889-1.07-1.446-3.013-11.279-9.384-6.82-4.418-14.494-9.25-17.053-10.736l-4.654-2.704-.71 11.225c-.674 10.656.127 32.234 1.197 32.234.276 0 7.448-4.339 15.94-9.642z" id="vector-path5362" transform="translate(57.786 110.77) scale(.26458)" opacity=".25" fill="#87deaa" fill-opacity="0" stroke-width=".382"/><path d="M206.356 50.683c-.794-4.802-.62-31.193.228-34.74l.638-2.668 15.895 10.111c8.743 5.562 15.677 10.466 15.41 10.898-.426.688-17.433 11.65-27.89 17.976l-3.655 2.212z" id="vector-path5364" transform="translate(57.786 110.77) scale(.26458)" opacity=".25" fill="#87deaa" fill-opacity="0" stroke-width=".382"/><path d="M156.346 132.34c-.845-.756-1.537-1.489-1.537-1.628 0-.575.768-.177 1.87.97l1.175 1.22 2.708-2.577c1.489-1.417 2.815-2.509 2.947-2.426.272.172-1.263 1.845-3.863 4.212l-1.763 1.605z" id="vector-path5386" fill="#3a3737" stroke-width=".272"/></g></symbol><symbol viewBox="0 0 8.4666623 5.8208326" id="video"><title>video</title><path fill="#62d0ba" stroke-width=".265" d="M.31 5.497c-.413-.412-.413-3.182 0-3.594.174-.175.985-.317 1.8-.317 1.358 0 2.12-.304 2.12-.846 0-.116-.716-.211-1.59-.211-.883 0-1.589-.118-1.589-.265 0-.15.795-.264 1.854-.264 1.656 0 1.854.055 1.854.51 0 .281.357.765.794 1.076.725.514.795.698.795 2.079 0 .833-.143 1.657-.318 1.832-.433.432-5.288.432-5.72 0zM3.17 3.7V2.643H1.05v2.114h2.12zm2.119-.793c0-.145-.358-.264-.795-.264-.437 0-.795.119-.795.264 0 .145.358.264.795.264.437 0 .795-.119.795-.264zm2.317 2.348c-.574-.427-.728-.757-.728-1.56 0-.828.147-1.121.794-1.58l.795-.565v2.132c0 1.173-.03 2.128-.067 2.124-.036-.005-.393-.253-.794-.55z"/></symbol></svg>