<svg xmlns:osb="http://www.openswatchbook.org/uri/2009/osb" xmlns="http://www.w3.org/2000/svg" xmlns:xlink="http://www.w3.org/1999/xlink" width="33" height="22" viewBox="0 0 8.7312531 5.8208315" id="svg8"><defs id="defs2"><linearGradient id="linearGradient5370" osb:paint="solid"><stop offset="0" id="stop5368" stop-color="#fff"/></linearGradient><style id="style30">.cls-1{opacity:.3}</style><style id="style45">.cls-1{opacity:.6}</style><style id="style30-8">.cls-1{opacity:.3}</style><style id="style45-4">.cls-1{opacity:.6}</style><style id="style30-0">.cls-1{opacity:.3}</style><style id="style104">.cls-1{opacity:.3}</style><style id="style119">.cls-1{opacity:.6}</style><style id="style134">.cls-1{opacity:.5}</style><style id="style149">.cls-1{opacity:.7}</style><style id="style164">.cls-1{opacity:.3}</style><style id="style30-1">.cls-1{opacity:.3}</style><style id="style45-47">.cls-1{opacity:.6}</style><style id="style30-8-8">.cls-1{opacity:.3}</style><style id="style45-4-2">.cls-1{opacity:.6}</style><style id="style30-0-0">.cls-1{opacity:.3}</style><style id="style104-5">.cls-1{opacity:.3}</style><style id="style119-8">.cls-1{opacity:.6}</style><style id="style134-4">.cls-1{opacity:.5}</style><style id="style30-2">.cls-1{opacity:.3}</style><style id="style45-6">.cls-1{opacity:.6}</style><style id="style30-8-1">.cls-1{opacity:.3}</style><style id="style45-4-3">.cls-1{opacity:.6}</style><style id="style30-0-9">.cls-1{opacity:.3}</style><style id="style104-4">.cls-1{opacity:.3}</style><style id="style119-5">.cls-1{opacity:.6}</style><style id="style134-3">.cls-1{opacity:.5}</style><style id="style149-3">.cls-1{opacity:.7}</style><style id="style30-6">.cls-1{opacity:.3}</style><style id="style45-1">.cls-1{opacity:.6}</style><style id="style30-8-88">.cls-1{opacity:.3}</style><style id="style45-4-6">.cls-1{opacity:.6}</style><style id="style30-0-5">.cls-1{opacity:.3}</style><style id="style104-6">.cls-1{opacity:.3}</style><style id="style119-50">.cls-1{opacity:.6}</style><style id="style134-1">.cls-1{opacity:.5}</style><style id="style149-9">.cls-1{opacity:.7}</style><style id="style164-0">.cls-1{opacity:.3}</style><style id="style30-89">.cls-1{opacity:.3}</style><style id="style45-0">.cls-1{opacity:.6}</style><style id="style30-8-2">.cls-1{opacity:.3}</style><style id="style45-4-9">.cls-1{opacity:.6}</style><style id="style30-0-6">.cls-1{opacity:.3}</style><style id="style104-50">.cls-1{opacity:.3}</style><style id="style119-9">.cls-1{opacity:.6}</style><style id="style134-11">.cls-1{opacity:.5}</style><style id="style149-0">.cls-1{opacity:.7}</style><style id="style164-1">.cls-1{opacity:.3}</style><style id="style30-1-5">.cls-1{opacity:.3}</style><style id="style45-47-7">.cls-1{opacity:.6}</style><style id="style30-8-8-7">.cls-1{opacity:.3}</style><style id="style45-4-2-8">.cls-1{opacity:.6}</style><style id="style30-0-0-7">.cls-1{opacity:.3}</style><style id="style104-5-6">.cls-1{opacity:.3}</style><style id="style119-8-6">.cls-1{opacity:.6}</style><style id="style134-4-3">.cls-1{opacity:.5}</style><style id="style30-01">.cls-1{opacity:.3}</style><style id="style45-8">.cls-1{opacity:.6}</style><style id="style30-8-9">.cls-1{opacity:.3}</style><style id="style45-4-1">.cls-1{opacity:.6}</style><style id="style30-0-2">.cls-1{opacity:.3}</style><style id="style104-9">.cls-1{opacity:.3}</style><style id="style119-1">.cls-1{opacity:.6}</style><style id="style134-10">.cls-1{opacity:.5}</style><style id="style149-4">.cls-1{opacity:.7}</style><style id="style164-8">.cls-1{opacity:.3}</style><style id="style30-1-3">.cls-1{opacity:.3}</style><style id="style45-47-4">.cls-1{opacity:.6}</style><style id="style30-8-8-2">.cls-1{opacity:.3}</style><style id="style45-4-2-4">.cls-1{opacity:.6}</style><style id="style30-0-0-9">.cls-1{opacity:.3}</style><style id="style104-5-1">.cls-1{opacity:.3}</style><style id="style119-8-3">.cls-1{opacity:.6}</style><style id="style134-4-4">.cls-1{opacity:.5}</style><style id="style30-2-5">.cls-1{opacity:.3}</style><style id="style45-6-5">.cls-1{opacity:.6}</style><style id="style30-8-1-3">.cls-1{opacity:.3}</style><style id="style45-4-3-8">.cls-1{opacity:.6}</style><style id="style30-0-9-8">.cls-1{opacity:.3}</style><style id="style104-4-3">.cls-1{opacity:.3}</style><style id="style119-5-8">.cls-1{opacity:.6}</style><style id="style134-3-6">.cls-1{opacity:.5}</style><style id="style149-3-6">.cls-1{opacity:.7}</style><style id="style30-65">.cls-1{opacity:.3}</style><style id="style45-471">.cls-1{opacity:.6}</style><style id="style30-8-5">.cls-1{opacity:.3}</style><style id="style45-4-26">.cls-1{opacity:.6}</style><style id="style30-0-1">.cls-1{opacity:.3}</style><style id="style104-7">.cls-1{opacity:.3}</style><style id="style119-7">.cls-1{opacity:.6}</style><style id="style134-15">.cls-1{opacity:.5}</style><style id="style149-2">.cls-1{opacity:.7}</style><style id="style164-87">.cls-1{opacity:.3}</style><style id="style30-1-1">.cls-1{opacity:.3}</style><style id="style45-47-46">.cls-1{opacity:.6}</style><style id="style30-8-8-3">.cls-1{opacity:.3}</style><style id="style45-4-2-86">.cls-1{opacity:.6}</style><style id="style30-0-0-2">.cls-1{opacity:.3}</style><style id="style104-5-0">.cls-1{opacity:.3}</style><style id="style119-8-0">.cls-1{opacity:.6}</style><style id="style134-4-5">.cls-1{opacity:.5}</style><style id="style30-2-9">.cls-1{opacity:.3}</style><style id="style45-6-3">.cls-1{opacity:.6}</style><style id="style30-8-1-5">.cls-1{opacity:.3}</style><style id="style45-4-3-4">.cls-1{opacity:.6}</style><style id="style30-0-9-3">.cls-1{opacity:.3}</style><style id="style104-4-32">.cls-1{opacity:.3}</style><style id="style119-5-7">.cls-1{opacity:.6}</style><style id="style134-3-3">.cls-1{opacity:.5}</style><style id="style149-3-7">.cls-1{opacity:.7}</style><style id="style30-6-5">.cls-1{opacity:.3}</style><style id="style45-1-0">.cls-1{opacity:.6}</style><style id="style30-8-88-3">.cls-1{opacity:.3}</style><style id="style45-4-6-8">.cls-1{opacity:.6}</style><style id="style30-0-5-2">.cls-1{opacity:.3}</style><style id="style104-6-6">.cls-1{opacity:.3}</style><style id="style119-50-2">.cls-1{opacity:.6}</style><style id="style134-1-3">.cls-1{opacity:.5}</style><style id="style149-9-3">.cls-1{opacity:.7}</style><style id="style164-0-5">.cls-1{opacity:.3}</style><style id="style30-89-3">.cls-1{opacity:.3}</style><style id="style45-0-8">.cls-1{opacity:.6}</style><style id="style30-8-2-1">.cls-1{opacity:.3}</style><style id="style45-4-9-7">.cls-1{opacity:.6}</style><style id="style30-0-6-7">.cls-1{opacity:.3}</style><style id="style104-50-6">.cls-1{opacity:.3}</style><style id="style119-9-7">.cls-1{opacity:.6}</style><style id="style134-11-1">.cls-1{opacity:.5}</style><style id="style149-0-9">.cls-1{opacity:.7}</style><style id="style164-1-1">.cls-1{opacity:.3}</style><style id="style30-1-5-7">.cls-1{opacity:.3}</style><style id="style45-47-7-4">.cls-1{opacity:.6}</style><style id="style30-8-8-7-1">.cls-1{opacity:.3}</style><style id="style45-4-2-8-8">.cls-1{opacity:.6}</style><style id="style30-0-0-7-1">.cls-1{opacity:.3}</style><style id="style104-5-6-9">.cls-1{opacity:.3}</style><style id="style119-8-6-7">.cls-1{opacity:.6}</style><style id="style134-4-3-5">.cls-1{opacity:.5}</style><style id="style30-7">.cls-1{opacity:.3}</style><style id="style45-5">.cls-1{opacity:.6}</style><style id="style30-8-86">.cls-1{opacity:.3}</style><style id="style45-4-29">.cls-1{opacity:.6}</style><style id="style30-0-23">.cls-1{opacity:.3}</style><style id="style104-8">.cls-1{opacity:.3}</style><style id="style119-0">.cls-1{opacity:.6}</style><style id="style134-8">.cls-1{opacity:.5}</style><style id="style149-5">.cls-1{opacity:.7}</style><style id="style164-88">.cls-1{opacity:.3}</style><style id="style30-1-31">.cls-1{opacity:.3}</style><style id="style45-47-9">.cls-1{opacity:.6}</style><style id="style30-8-8-4">.cls-1{opacity:.3}</style><style id="style45-4-2-865">.cls-1{opacity:.6}</style><style id="style30-0-0-8">.cls-1{opacity:.3}</style><style id="style104-5-00">.cls-1{opacity:.3}</style><style id="style119-8-1">.cls-1{opacity:.6}</style><style id="style134-4-30">.cls-1{opacity:.5}</style><style id="style30-2-1">.cls-1{opacity:.3}</style><style id="style45-6-2">.cls-1{opacity:.6}</style><style id="style30-8-1-6">.cls-1{opacity:.3}</style><style id="style45-4-3-5">.cls-1{opacity:.6}</style><style id="style30-0-9-6">.cls-1{opacity:.3}</style><style id="style104-4-2">.cls-1{opacity:.3}</style><style id="style119-5-0">.cls-1{opacity:.6}</style><style id="style134-3-64">.cls-1{opacity:.5}</style><style id="style149-3-3">.cls-1{opacity:.7}</style><style id="style30-6-3">.cls-1{opacity:.3}</style><style id="style45-1-7">.cls-1{opacity:.6}</style><style id="style30-8-88-6">.cls-1{opacity:.3}</style><style id="style45-4-6-84">.cls-1{opacity:.6}</style><style id="style30-0-5-21">.cls-1{opacity:.3}</style><style id="style104-6-2">.cls-1{opacity:.3}</style><style id="style119-50-7">.cls-1{opacity:.6}</style><style id="style134-1-7">.cls-1{opacity:.5}</style><style id="style149-9-1">.cls-1{opacity:.7}</style><style id="style164-0-6">.cls-1{opacity:.3}</style><style id="style30-89-7">.cls-1{opacity:.3}</style><style id="style45-0-6">.cls-1{opacity:.6}</style><style id="style30-8-2-0">.cls-1{opacity:.3}</style><style id="style45-4-9-0">.cls-1{opacity:.6}</style><style id="style30-0-6-2">.cls-1{opacity:.3}</style><style id="style104-50-7">.cls-1{opacity:.3}</style><style id="style119-9-3">.cls-1{opacity:.6}</style><style id="style134-11-2">.cls-1{opacity:.5}</style><style id="style149-0-92">.cls-1{opacity:.7}</style><style id="style164-1-17">.cls-1{opacity:.3}</style><style id="style30-1-5-5">.cls-1{opacity:.3}</style><style id="style45-47-7-40">.cls-1{opacity:.6}</style><style id="style30-8-8-7-0">.cls-1{opacity:.3}</style><style id="style45-4-2-8-4">.cls-1{opacity:.6}</style><style id="style30-0-0-7-6">.cls-1{opacity:.3}</style><style id="style104-5-6-5">.cls-1{opacity:.3}</style><style id="style119-8-6-4">.cls-1{opacity:.6}</style><style id="style134-4-3-0">.cls-1{opacity:.5}</style><style id="style30-01-1">.cls-1{opacity:.3}</style><style id="style45-8-6">.cls-1{opacity:.6}</style><style id="style30-8-9-5">.cls-1{opacity:.3}</style><style id="style45-4-1-7">.cls-1{opacity:.6}</style><style id="style30-0-2-1">.cls-1{opacity:.3}</style><style id="style104-9-4">.cls-1{opacity:.3}</style><style id="style119-1-1">.cls-1{opacity:.6}</style><style id="style134-10-6">.cls-1{opacity:.5}</style><style id="style149-4-7">.cls-1{opacity:.7}</style><style id="style164-8-5">.cls-1{opacity:.3}</style><style id="style30-1-3-8">.cls-1{opacity:.3}</style><style id="style45-47-4-6">.cls-1{opacity:.6}</style><style id="style30-8-8-2-7">.cls-1{opacity:.3}</style><style id="style45-4-2-4-3">.cls-1{opacity:.6}</style><style id="style30-0-0-9-6">.cls-1{opacity:.3}</style><style id="style104-5-1-0">.cls-1{opacity:.3}</style><style id="style119-8-3-1">.cls-1{opacity:.6}</style><style id="style134-4-4-5">.cls-1{opacity:.5}</style><style id="style30-2-5-0">.cls-1{opacity:.3}</style><style id="style45-6-5-5">.cls-1{opacity:.6}</style><style id="style30-8-1-3-7">.cls-1{opacity:.3}</style><style id="style45-4-3-8-6">.cls-1{opacity:.6}</style><style id="style30-0-9-8-7">.cls-1{opacity:.3}</style><style id="style104-4-3-0">.cls-1{opacity:.3}</style><style id="style119-5-8-6">.cls-1{opacity:.6}</style><style id="style134-3-6-0">.cls-1{opacity:.5}</style><style id="style149-3-6-3">.cls-1{opacity:.7}</style><style id="style30-3">.cls-1{opacity:.3}</style><style id="style45-40">.cls-1{opacity:.6}</style><style id="style30-8-84">.cls-1{opacity:.3}</style><style id="style45-4-27">.cls-1{opacity:.6}</style><style id="style30-0-7">.cls-1{opacity:.3}</style><style id="style104-0">.cls-1{opacity:.3}</style><style id="style119-51">.cls-1{opacity:.6}</style><style id="style134-6">.cls-1{opacity:.5}</style><style id="style149-8">.cls-1{opacity:.7}</style><style id="style164-00">.cls-1{opacity:.3}</style><style id="style30-1-2">.cls-1{opacity:.3}</style><style id="style45-47-47">.cls-1{opacity:.6}</style><style id="style30-8-8-31">.cls-1{opacity:.3}</style><style id="style45-4-2-3">.cls-1{opacity:.6}</style><style id="style30-0-0-3">.cls-1{opacity:.3}</style><style id="style104-5-09">.cls-1{opacity:.3}</style><style id="style119-8-5">.cls-1{opacity:.6}</style><style id="style134-4-7">.cls-1{opacity:.5}</style><style id="style30-2-7">.cls-1{opacity:.3}</style><style id="style45-6-1">.cls-1{opacity:.6}</style><style id="style30-8-1-4">.cls-1{opacity:.3}</style><style id="style45-4-3-0">.cls-1{opacity:.6}</style><style id="style30-0-9-7">.cls-1{opacity:.3}</style><style id="style104-4-6">.cls-1{opacity:.3}</style><style id="style119-5-73">.cls-1{opacity:.6}</style><style id="style134-3-8">.cls-1{opacity:.5}</style><style id="style149-3-71">.cls-1{opacity:.7}</style><style id="style30-6-59">.cls-1{opacity:.3}</style><style id="style45-1-01">.cls-1{opacity:.6}</style><style id="style30-8-88-2">.cls-1{opacity:.3}</style><style id="style45-4-6-7">.cls-1{opacity:.6}</style><style id="style30-0-5-8">.cls-1{opacity:.3}</style><style id="style104-6-1">.cls-1{opacity:.3}</style><style id="style119-50-3">.cls-1{opacity:.6}</style><style id="style134-1-72">.cls-1{opacity:.5}</style><style id="style149-9-8">.cls-1{opacity:.7}</style><style id="style164-0-59">.cls-1{opacity:.3}</style><style id="style42">.cls-1{opacity:.3}</style><style id="style4607">.cls-1{opacity:.3}</style><style id="style42-8">.cls-1{opacity:.3}</style><style id="style42-7">.cls-1{opacity:.3}</style><linearGradient xlink:href="#linearGradient5370" id="linearGradient5372" x1="166.954" y1="33.888" x2="271.855" y2="33.888" gradientUnits="userSpaceOnUse"/></defs><g id="layer1" transform="translate(-154.81 -127.895)"><path d="M211.768 30.335c0-12.625.376-20.311.992-20.311 1.9 0 31.34 18.759 31.32 19.956-.007.413-1.711 1.864-3.788 3.223-8.93 5.846-26.011 16.479-27.214 16.94-1.046.402-1.31-3.586-1.31-19.808z" id="path1644" transform="translate(57.786 110.77) scale(.26458)" opacity=".25" fill="#37c8ab" fill-opacity="0" stroke-width=".382"/><path d="M211.768 30.335c0-12.625.376-20.311.992-20.311 1.9 0 31.34 18.759 31.32 19.956-.007.413-1.711 1.864-3.788 3.223-8.93 5.846-26.011 16.479-27.214 16.94-1.046.402-1.31-3.586-1.31-19.808z" id="path1646" transform="translate(57.786 110.77) scale(.26458)" opacity=".25" fill="#37c8ab" fill-opacity="0" stroke-width=".382"/><path d="M211.768 30.335c0-12.625.376-20.311.992-20.311 1.9 0 31.34 18.759 31.32 19.956-.007.413-1.711 1.864-3.788 3.223-8.93 5.846-26.011 16.479-27.214 16.94-1.046.402-1.31-3.586-1.31-19.808z" id="path1648" transform="translate(57.786 110.77) scale(.26458)" opacity=".25" fill="#37c8ab" fill-opacity="0" stroke-width=".382"/><path d="M211.768 30.335c0-12.625.376-20.311.992-20.311 1.9 0 31.34 18.759 31.32 19.956-.007.413-1.711 1.864-3.788 3.223-8.93 5.846-26.011 16.479-27.214 16.94-1.046.402-1.31-3.586-1.31-19.808z" id="path1650" transform="translate(57.786 110.77) scale(.26458)" opacity=".25" fill="#002b22" fill-opacity="0" stroke-width=".382"/><path d="M211.768 30.335c0-12.625.376-20.311.992-20.311 1.9 0 31.34 18.759 31.32 19.956-.007.413-1.711 1.864-3.788 3.223-8.93 5.846-26.011 16.479-27.214 16.94-1.046.402-1.31-3.586-1.31-19.808z" id="path1652" transform="translate(57.786 110.77) scale(.26458)" opacity=".25" fill="#002b22" fill-opacity="0" stroke-width=".382"/><path d="M211.768 30.335c0-12.625.376-20.311.992-20.311 1.9 0 31.34 18.759 31.32 19.956-.007.413-1.711 1.864-3.788 3.223-8.93 5.846-26.011 16.479-27.214 16.94-1.046.402-1.31-3.586-1.31-19.808z" id="path1654" transform="translate(57.786 110.77) scale(.26458)" opacity=".25" fill="#002b22" fill-opacity="0" stroke-width=".382"/><path d="M211.768 30.335c0-12.625.376-20.311.992-20.311 1.9 0 31.34 18.759 31.32 19.956-.007.413-1.711 1.864-3.788 3.223-8.93 5.846-26.011 16.479-27.214 16.94-1.046.402-1.31-3.586-1.31-19.808z" id="path1656" transform="translate(57.786 110.77) scale(.26458)" opacity=".25" fill="#002b22" fill-opacity="0" stroke-width=".382"/><path d="M211.768 30.335c0-12.625.376-20.311.992-20.311 1.9 0 31.34 18.759 31.32 19.956-.007.413-1.711 1.864-3.788 3.223-8.93 5.846-26.011 16.479-27.214 16.94-1.046.402-1.31-3.586-1.31-19.808z" id="path1658" transform="translate(57.786 110.77) scale(.26458)" opacity=".25" fill="#002b22" fill-opacity="0" stroke-width=".382"/><path d="M192.575 67.58c-9.547-.944-12.57-2.356-14.851-6.936-1.611-3.236-1.816-6.676-1.816-30.417 0-24.75.152-27.074 2.02-30.81 1.113-2.226 3.313-4.654 4.899-5.407 4.206-1.996 32.36-2.967 60.063-2.073 33.308 1.076 31.848-.447 32.349 33.739.427 29.172-.001 32.958-4.247 37.591l-3.233 3.528-14.106.86c-16.761 1.02-50.423.98-61.078-.075zm31.035-22.855c5.988-3.693 13.54-8.51 16.784-10.705l5.898-3.99-3.877-2.649c-2.133-1.457-9.787-6.42-17.01-11.028-12.563-8.017-13.16-8.28-13.789-6.092-1.479 5.15-.817 41.179.756 41.179.194 0 5.251-3.022 11.238-6.715z" id="path1660" transform="translate(57.786 110.77) scale(.26458)" opacity=".25" fill="#002b22" fill-opacity="0" stroke-width=".382"/><path d="M192.575 67.58c-9.547-.944-12.57-2.356-14.851-6.936-1.611-3.236-1.816-6.676-1.816-30.417 0-24.75.152-27.074 2.02-30.81 1.113-2.226 3.313-4.654 4.899-5.407 4.206-1.996 32.36-2.967 60.063-2.073 33.308 1.076 31.848-.447 32.349 33.739.427 29.172-.001 32.958-4.247 37.591l-3.233 3.528-14.106.86c-16.761 1.02-50.423.98-61.078-.075zm31.035-22.855c5.988-3.693 13.54-8.51 16.784-10.705l5.898-3.99-3.877-2.649c-2.133-1.457-9.787-6.42-17.01-11.028-12.563-8.017-13.16-8.28-13.789-6.092-1.479 5.15-.817 41.179.756 41.179.194 0 5.251-3.022 11.238-6.715z" id="path1662" transform="translate(57.786 110.77) scale(.26458)" opacity=".25" fill="#002b22" fill-opacity="0" stroke-width=".382"/><path d="M192.575 67.58c-9.547-.944-12.57-2.356-14.851-6.936-1.611-3.236-1.816-6.676-1.816-30.417 0-24.75.152-27.074 2.02-30.81 1.113-2.226 3.313-4.654 4.899-5.407 4.206-1.996 32.36-2.967 60.063-2.073 33.308 1.076 31.848-.447 32.349 33.739.427 29.172-.001 32.958-4.247 37.591l-3.233 3.528-14.106.86c-16.761 1.02-50.423.98-61.078-.075zm31.035-22.855c5.988-3.693 13.54-8.51 16.784-10.705l5.898-3.99-3.877-2.649c-2.133-1.457-9.787-6.42-17.01-11.028-12.563-8.017-13.16-8.28-13.789-6.092-1.479 5.15-.817 41.179.756 41.179.194 0 5.251-3.022 11.238-6.715z" id="path1664" transform="translate(57.786 110.77) scale(.26458)" opacity=".25" fill="#b7c8be" fill-opacity="0" stroke-width=".382"/><path d="M211.768 30.335c0-12.625.376-20.311.992-20.311 1.9 0 31.34 18.759 31.32 19.956-.007.413-1.711 1.864-3.788 3.223-8.93 5.846-26.011 16.479-27.214 16.94-1.046.402-1.31-3.586-1.31-19.808z" id="path1666" transform="translate(57.786 110.77) scale(.26458)" opacity=".25" fill="#b7c8be" fill-opacity="0" stroke-width=".382"/><path d="M211.768 30.335c0-12.625.376-20.311.992-20.311 1.9 0 31.34 18.759 31.32 19.956-.007.413-1.711 1.864-3.788 3.223-8.93 5.846-26.011 16.479-27.214 16.94-1.046.402-1.31-3.586-1.31-19.808z" id="path1668" transform="translate(57.786 110.77) scale(.26458)" opacity=".25" fill="#b7c8be" fill-opacity="0" stroke-width=".382"/><path d="M211.768 30.335c0-12.625.376-20.311.992-20.311 1.9 0 31.34 18.759 31.32 19.956-.007.413-1.711 1.864-3.788 3.223-8.93 5.846-26.011 16.479-27.214 16.94-1.046.402-1.31-3.586-1.31-19.808z" id="path1670" transform="translate(57.786 110.77) scale(.26458)" opacity=".25" fill="#b7c8be" fill-opacity="0" stroke-width=".382"/><path d="M211.768 30.335c0-12.625.376-20.311.992-20.311 1.9 0 31.34 18.759 31.32 19.956-.007.413-1.711 1.864-3.788 3.223-8.93 5.846-26.011 16.479-27.214 16.94-1.046.402-1.31-3.586-1.31-19.808z" id="path1672" transform="translate(57.786 110.77) scale(.26458)" opacity=".25" fill="#b7c8be" fill-opacity="0" stroke-width=".382"/><path d="M211.768 30.335c0-12.625.376-20.311.992-20.311 1.9 0 31.34 18.759 31.32 19.956-.007.413-1.711 1.864-3.788 3.223-8.93 5.846-26.011 16.479-27.214 16.94-1.046.402-1.31-3.586-1.31-19.808z" id="path1674" transform="translate(57.786 110.77) scale(.26458)" opacity=".25" fill="#b7c8be" fill-opacity="0" stroke-width=".382"/><path d="M211.768 30.335c0-12.625.376-20.311.992-20.311 1.9 0 31.34 18.759 31.32 19.956-.007.413-1.711 1.864-3.788 3.223-8.93 5.846-26.011 16.479-27.214 16.94-1.046.402-1.31-3.586-1.31-19.808z" id="path1676" transform="translate(57.786 110.77) scale(.26458)" opacity=".25" fill="#b7c8be" fill-opacity="0" stroke-width=".382"/><path d="M206.356 50.683c-.794-4.802-.62-31.193.228-34.74l.638-2.668 15.895 10.111c8.743 5.562 15.677 10.466 15.41 10.898-.426.688-17.433 11.65-27.89 17.976l-3.655 2.212z" id="path5348" transform="translate(57.786 110.77) scale(.26458)" opacity=".25" fill="#b7c8be" fill-opacity="0" stroke-width=".382"/><path d="M206.356 50.683c-.794-4.802-.62-31.193.228-34.74l.638-2.668 15.895 10.111c8.743 5.562 15.677 10.466 15.41 10.898-.426.688-17.433 11.65-27.89 17.976l-3.655 2.212z" id="path5350" transform="translate(57.786 110.77) scale(.26458)" opacity=".25" fill="#b7c8be" fill-opacity="0" stroke-width=".382"/><path d="M206.356 50.683c-.794-4.802-.62-31.193.228-34.74l.638-2.668 15.895 10.111c8.743 5.562 15.677 10.466 15.41 10.898-.426.688-17.433 11.65-27.89 17.976l-3.655 2.212z" id="path5352" transform="translate(57.786 110.77) scale(.26458)" opacity=".25" fill="#b7c8be" fill-opacity="0" stroke-width=".382"/><path d="M206.356 50.683c-.794-4.802-.62-31.193.228-34.74l.638-2.668 15.895 10.111c8.743 5.562 15.677 10.466 15.41 10.898-.426.688-17.433 11.65-27.89 17.976l-3.655 2.212z" id="path5354" transform="translate(57.786 110.77) scale(.26458)" opacity=".25" fill="#b7c8be" fill-opacity="0" stroke-width=".382"/><path d="M188.534 71.617c-10.109-.869-13.451-2.022-15.668-5.404-2.413-3.684-3.81-20.774-3.311-40.532.372-14.734.738-17.855 2.58-21.975 1.468-3.282 3.044-5.147 4.98-5.891 5.337-2.052 36.024-3.092 60.331-2.044 33.316 1.435 31.897-.253 31.9 37.925 0 24.54-.133 26.474-2.118 30.574-1.165 2.407-3.035 4.867-4.154 5.466-4.37 2.34-54.498 3.604-74.54 1.881zm33.888-25.779c8.491-5.303 15.943-10.25 16.56-10.993.889-1.07-1.446-3.013-11.279-9.384-6.82-4.418-14.494-9.25-17.053-10.736l-4.654-2.704-.71 11.225c-.674 10.656.127 32.234 1.197 32.234.276 0 7.448-4.339 15.94-9.642z" id="path5356" transform="translate(57.786 110.77) scale(.26458)" opacity=".25" fill="#b7c8be" fill-opacity="0" stroke-width=".382"/><path d="M188.534 71.617c-10.109-.869-13.451-2.022-15.668-5.404-2.413-3.684-3.81-20.774-3.311-40.532.372-14.734.738-17.855 2.58-21.975 1.468-3.282 3.044-5.147 4.98-5.891 5.337-2.052 36.024-3.092 60.331-2.044 33.316 1.435 31.897-.253 31.9 37.925 0 24.54-.133 26.474-2.118 30.574-1.165 2.407-3.035 4.867-4.154 5.466-4.37 2.34-54.498 3.604-74.54 1.881zm33.888-25.779c8.491-5.303 15.943-10.25 16.56-10.993.889-1.07-1.446-3.013-11.279-9.384-6.82-4.418-14.494-9.25-17.053-10.736l-4.654-2.704-.71 11.225c-.674 10.656.127 32.234 1.197 32.234.276 0 7.448-4.339 15.94-9.642z" id="path5358" transform="translate(57.786 110.77) scale(.26458)" opacity=".25" fill="#b7c8be" fill-opacity="0" stroke-width=".382"/><path d="M188.534 71.617c-10.109-.869-13.451-2.022-15.668-5.404-2.413-3.684-3.81-20.774-3.311-40.532.372-14.734.738-17.855 2.58-21.975 1.468-3.282 3.044-5.147 4.98-5.891 5.337-2.052 36.024-3.092 60.331-2.044 33.316 1.435 31.897-.253 31.9 37.925 0 24.54-.133 26.474-2.118 30.574-1.165 2.407-3.035 4.867-4.154 5.466-4.37 2.34-54.498 3.604-74.54 1.881zm33.888-25.779c8.491-5.303 15.943-10.25 16.56-10.993.889-1.07-1.446-3.013-11.279-9.384-6.82-4.418-14.494-9.25-17.053-10.736l-4.654-2.704-.71 11.225c-.674 10.656.127 32.234 1.197 32.234.276 0 7.448-4.339 15.94-9.642z" id="path5360" transform="translate(57.786 110.77) scale(.26458)" opacity=".25" fill="#b7c8be" fill-opacity="0" stroke-width=".382"/><path d="M188.534 71.617c-10.109-.869-13.451-2.022-15.668-5.404-2.413-3.684-3.81-20.774-3.311-40.532.372-14.734.738-17.855 2.58-21.975 1.468-3.282 3.044-5.147 4.98-5.891 5.337-2.052 36.024-3.092 60.331-2.044 33.316 1.435 31.897-.253 31.9 37.925 0 24.54-.133 26.474-2.118 30.574-1.165 2.407-3.035 4.867-4.154 5.466-4.37 2.34-54.498 3.604-74.54 1.881zm33.888-25.779c8.491-5.303 15.943-10.25 16.56-10.993.889-1.07-1.446-3.013-11.279-9.384-6.82-4.418-14.494-9.25-17.053-10.736l-4.654-2.704-.71 11.225c-.674 10.656.127 32.234 1.197 32.234.276 0 7.448-4.339 15.94-9.642z" id="path5362" transform="translate(57.786 110.77) scale(.26458)" opacity=".25" fill="#87deaa" fill-opacity="0" stroke-width=".382"/><path d="M206.356 50.683c-.794-4.802-.62-31.193.228-34.74l.638-2.668 15.895 10.111c8.743 5.562 15.677 10.466 15.41 10.898-.426.688-17.433 11.65-27.89 17.976l-3.655 2.212z" id="path5364" transform="translate(57.786 110.77) scale(.26458)" opacity=".25" fill="#87deaa" fill-opacity="0" stroke-width=".382"/><path d="M156.346 132.34c-.845-.756-1.537-1.489-1.537-1.628 0-.575.768-.177 1.87.97l1.175 1.22 2.708-2.577c1.489-1.417 2.815-2.509 2.947-2.426.272.172-1.263 1.845-3.863 4.212l-1.763 1.605z" id="path5386" fill="#3a3737" stroke-width=".272"/></g></svg>