<svg xmlns="http://www.w3.org/2000/svg" viewBox="0 0 8.4666623 5.8208326"><path fill="#62d0ba" stroke-width=".265" d="M.31 5.497c-.413-.412-.413-3.182 0-3.594.174-.175.985-.317 1.8-.317 1.358 0 2.12-.304 2.12-.846 0-.116-.716-.211-1.59-.211-.883 0-1.589-.118-1.589-.265 0-.15.795-.264 1.854-.264 1.656 0 1.854.055 1.854.51 0 .281.357.765.794 1.076.725.514.795.698.795 2.079 0 .833-.143 1.657-.318 1.832-.433.432-5.288.432-5.72 0zM3.17 3.7V2.643H1.05v2.114h2.12zm2.119-.793c0-.145-.358-.264-.795-.264-.437 0-.795.119-.795.264 0 .145.358.264.795.264.437 0 .795-.119.795-.264zm2.317 2.348c-.574-.427-.728-.757-.728-1.56 0-.828.147-1.121.794-1.58l.795-.565v2.132c0 1.173-.03 2.128-.067 2.124-.036-.005-.393-.253-.794-.55z"/></svg>